<svg width="85" height="35" viewBox="0 0 85 35" fill="none"
    xmlns="http://www.w3.org/2000/svg">
    <g filter="url(#filter0_d_3004_2946)">
        <path d="M77.9029 26.8584H81.8945L77.9029 30.1848V26.8584Z" fill="#C1555D"/>
        <path d="M82.1641 8.2309C82.1641 4.55667 79.1855 1.57812 75.5113 1.57812H6.04533C3.90536 1.57812 2.64069 3.97579 3.84909 5.74192L7.0784 10.4617C8.62799 12.7265 8.62799 15.7103 7.0784 17.9751L3.84908 22.6949C2.64068 24.461 3.90536 26.8587 6.04532 26.8587H82.1641V8.2309Z" fill="url(#paint0_linear_3004_2946)"/>
        <path d="M18.2607 19.8721C18.2607 19.7041 18.3027 19.5408 18.3867 19.3821C18.4707 19.2141 18.5874 19.0601 18.7367 18.9201C18.886 18.7708 19.0587 18.6401 19.2547 18.5281C19.46 18.4068 19.67 18.3181 19.8847 18.2621C20.1087 18.1968 20.3327 18.1641 20.5567 18.1641C20.6407 18.1641 20.7107 18.1688 20.7667 18.1781C20.832 18.1781 20.9114 18.1828 21.0047 18.1921C21.1074 18.1921 21.252 18.1921 21.4387 18.1921C21.8774 18.1921 22.316 18.1781 22.7547 18.1501C23.1934 18.1221 23.6087 18.0848 24.0007 18.0381C24.3927 17.9915 24.7334 17.9401 25.0227 17.8841C25.3214 17.8281 25.55 17.7628 25.7087 17.6881C25.6714 18.3601 25.4987 18.8875 25.1907 19.2701C24.892 19.6528 24.4954 19.8441 24.0007 19.8441C23.814 19.8441 23.5527 19.8161 23.2167 19.7601C22.89 19.7135 22.512 19.6668 22.0827 19.6201C21.6534 19.5828 21.1867 19.5641 20.6827 19.5641C20.216 19.5641 19.7727 19.5875 19.3527 19.6341C18.942 19.6901 18.578 19.7695 18.2607 19.8721ZM21.2567 13.5581C20.9207 13.5581 20.622 13.4928 20.3607 13.3621C20.1087 13.2221 19.908 13.0308 19.7587 12.7881C19.6187 12.5361 19.5487 12.2515 19.5487 11.9341C19.5487 11.4955 19.6747 11.1035 19.9267 10.7581C20.188 10.4128 20.5474 10.1421 21.0047 9.94612C21.462 9.74079 21.9754 9.63812 22.5447 9.63812C23.1887 9.63812 23.7487 9.74546 24.2247 9.96012C24.71 10.1748 25.0834 10.4781 25.3447 10.8701C25.6154 11.2621 25.7507 11.7241 25.7507 12.2561C25.7507 12.8068 25.6154 13.3715 25.3447 13.9501C25.0834 14.5288 24.696 15.1075 24.1827 15.6861C23.6787 16.2555 23.0674 16.8061 22.3487 17.3381C21.6394 17.8701 20.8414 18.3648 19.9547 18.8221L19.0307 18.7941C19.6747 18.3275 20.258 17.8748 20.7807 17.4361C21.3034 16.9881 21.7607 16.5495 22.1527 16.1201C22.5447 15.6908 22.8667 15.2755 23.1187 14.8741C23.38 14.4635 23.5714 14.0621 23.6927 13.6701C23.8234 13.2688 23.8887 12.8815 23.8887 12.5081C23.8887 11.9575 23.7627 11.5281 23.5107 11.2201C23.2587 10.9028 22.9134 10.7441 22.4747 10.7441C22.092 10.7441 21.7794 10.8701 21.5367 11.1221C21.3034 11.3648 21.1867 11.6915 21.1867 12.1021C21.1867 12.3635 21.2334 12.6155 21.3267 12.8581C21.42 13.0915 21.5554 13.3108 21.7327 13.5161C21.6487 13.5255 21.5647 13.5348 21.4807 13.5441C21.406 13.5535 21.3314 13.5581 21.2567 13.5581ZM30.0234 19.9281C29.4541 19.9281 28.9501 19.8348 28.5114 19.6481C28.0821 19.4708 27.7414 19.2235 27.4894 18.9061C27.2468 18.5795 27.1254 18.2061 27.1254 17.7861C27.1254 17.4408 27.2001 17.1375 27.3494 16.8761C27.4988 16.6055 27.7041 16.3955 27.9654 16.2461C28.2268 16.0875 28.5254 16.0081 28.8614 16.0081C28.9454 16.0081 29.0294 16.0128 29.1134 16.0221C29.2068 16.0221 29.2908 16.0315 29.3654 16.0501C29.0014 16.4608 28.8194 16.9228 28.8194 17.4361C28.8194 17.8655 28.9361 18.2108 29.1694 18.4721C29.4121 18.7335 29.7388 18.8641 30.1494 18.8641C30.6814 18.8641 31.1201 18.6728 31.4654 18.2901C31.8108 17.8981 31.9834 17.4081 31.9834 16.8201C31.9834 16.3161 31.8714 15.8868 31.6474 15.5321C31.4234 15.1681 31.1061 14.8881 30.6954 14.6921C30.2941 14.4961 29.8181 14.3981 29.2674 14.3981C29.0621 14.3981 28.8334 14.4168 28.5814 14.4541C28.3388 14.4821 28.0821 14.5241 27.8114 14.5801L28.6234 9.89012L29.4774 10.1561L29.7854 10.5201L29.2954 13.5301C29.4261 13.5115 29.5708 13.4975 29.7294 13.4881C29.8974 13.4695 30.0561 13.4601 30.2054 13.4601C30.9334 13.4601 31.5588 13.5815 32.0814 13.8241C32.6134 14.0668 33.0241 14.4121 33.3134 14.8601C33.6121 15.2988 33.7614 15.8168 33.7614 16.4141C33.7614 17.0675 33.5934 17.6648 33.2574 18.2061C32.9308 18.7381 32.4874 19.1581 31.9274 19.4661C31.3674 19.7741 30.7328 19.9281 30.0234 19.9281ZM33.7474 9.63812C33.7848 9.70346 33.8128 9.82946 33.8314 10.0161C33.8594 10.1935 33.8734 10.3708 33.8734 10.5481C33.8734 10.9215 33.8081 11.1968 33.6774 11.3741C33.5468 11.5421 33.3414 11.6261 33.0614 11.6261C32.9401 11.6261 32.7208 11.6075 32.4034 11.5701C32.0861 11.5328 31.7268 11.4815 31.3254 11.4161C30.9241 11.3508 30.5181 11.2808 30.1074 11.2061C29.6968 11.1315 29.3421 11.0661 29.0434 11.0101C28.7261 10.9355 28.4881 10.8001 28.3294 10.6041C28.1801 10.4081 28.0868 10.1235 28.0494 9.75012C28.3388 9.78746 28.6468 9.82012 28.9734 9.84812C29.3094 9.86679 29.6734 9.87612 30.0654 9.87612C30.4388 9.87612 30.8401 9.86679 31.2694 9.84812C31.6988 9.82946 32.1281 9.80146 32.5574 9.76412C32.9961 9.72679 33.3928 9.68479 33.7474 9.63812ZM37.5455 10.5901C37.3122 10.5901 37.0928 10.7115 36.8875 10.9541C36.6822 11.1875 36.5142 11.5001 36.3835 11.8921C36.2528 12.2748 36.1875 12.6855 36.1875 13.1241C36.1875 13.5815 36.2622 13.9455 36.4115 14.2161C36.5608 14.4868 36.7662 14.6221 37.0275 14.6221C37.2608 14.6221 37.4662 14.5148 37.6435 14.3001C37.8302 14.0761 37.9748 13.7728 38.0775 13.3901C38.1895 13.0075 38.2455 12.5781 38.2455 12.1021C38.2455 11.6168 38.1848 11.2435 38.0635 10.9821C37.9515 10.7208 37.7788 10.5901 37.5455 10.5901ZM37.2095 9.97412C37.5455 9.84346 37.8395 9.77812 38.0915 9.77812C38.5955 9.77812 38.9828 9.96946 39.2535 10.3521C39.5335 10.7348 39.6735 11.2715 39.6735 11.9621C39.6735 12.6248 39.5522 13.2268 39.3095 13.7681C39.0668 14.3001 38.7402 14.7201 38.3295 15.0281C37.9188 15.3361 37.4475 15.4901 36.9155 15.4901C36.2715 15.4901 35.7582 15.2568 35.3755 14.7901C34.9928 14.3141 34.8015 13.6841 34.8015 12.9001C34.8015 12.3681 34.8902 11.8781 35.0675 11.4301C35.2542 10.9728 35.5062 10.5855 35.8235 10.2681C36.1502 9.95079 36.5235 9.74079 36.9435 9.63812L37.2095 9.97412ZM41.6755 8.82612C41.9182 8.95679 42.1188 9.15746 42.2775 9.42812C42.4362 9.69879 42.5155 9.97879 42.5155 10.2681C42.5155 10.4921 42.4595 10.8281 42.3475 11.2761C42.2355 11.7148 42.0908 12.2328 41.9135 12.8301C41.7362 13.4181 41.5402 14.0575 41.3255 14.7481C41.1202 15.4295 40.9148 16.1248 40.7095 16.8341C40.5135 17.5341 40.3362 18.2201 40.1775 18.8921C40.0282 19.5548 39.9208 20.1661 39.8555 20.7261C39.5008 20.6888 39.2022 20.5395 38.9595 20.2781C38.7262 20.0261 38.6095 19.7275 38.6095 19.3821C38.6095 19.1301 38.6702 18.7661 38.7915 18.2901C38.9128 17.8141 39.0762 17.2635 39.2815 16.6381C39.4962 16.0128 39.7202 15.3501 39.9535 14.6501C40.1868 13.9501 40.4202 13.2455 40.6535 12.5361C40.8868 11.8268 41.0922 11.1548 41.2695 10.5201C41.4562 9.88546 41.5915 9.32079 41.6755 8.82612ZM44.7415 15.0141C44.5082 15.0141 44.2888 15.1355 44.0835 15.3781C43.8782 15.6115 43.7102 15.9241 43.5795 16.3161C43.4488 16.6988 43.3835 17.1095 43.3835 17.5481C43.3835 18.0055 43.4582 18.3695 43.6075 18.6401C43.7568 18.9108 43.9622 19.0461 44.2235 19.0461C44.4568 19.0461 44.6622 18.9388 44.8395 18.7241C45.0262 18.5001 45.1708 18.1968 45.2735 17.8141C45.3855 17.4315 45.4415 17.0021 45.4415 16.5261C45.4415 16.0408 45.3808 15.6675 45.2595 15.4061C45.1475 15.1448 44.9748 15.0141 44.7415 15.0141ZM44.4055 14.3981C44.7415 14.2675 45.0355 14.2021 45.2875 14.2021C45.7915 14.2021 46.1788 14.3935 46.4495 14.7761C46.7295 15.1588 46.8695 15.6955 46.8695 16.3861C46.8695 17.0488 46.7482 17.6508 46.5055 18.1921C46.2628 18.7241 45.9362 19.1441 45.5255 19.4521C45.1148 19.7601 44.6435 19.9141 44.1115 19.9141C43.4675 19.9141 42.9542 19.6808 42.5715 19.2141C42.1888 18.7381 41.9975 18.1081 41.9975 17.3241C41.9975 16.7921 42.0862 16.3021 42.2635 15.8541C42.4502 15.3968 42.7022 15.0095 43.0195 14.6921C43.3462 14.3748 43.7195 14.1648 44.1395 14.0621L44.4055 14.3981ZM55.5531 19.7881C55.1984 19.7881 54.8438 19.7181 54.4891 19.5781C54.1344 19.4288 53.8124 19.2048 53.5231 18.9061C53.2431 18.6075 53.0144 18.2295 52.8371 17.7721C52.6691 17.3055 52.5851 16.7548 52.5851 16.1201C52.5851 15.3455 52.7111 14.6268 52.9631 13.9641C53.2151 13.2921 53.5698 12.7275 54.0271 12.2701C54.4938 11.8035 55.0398 11.4815 55.6651 11.3041C55.7678 11.3041 55.8518 11.3321 55.9171 11.3881C55.9918 11.4441 56.0338 11.5095 56.0431 11.5841C55.7164 11.7895 55.3991 12.0835 55.0911 12.4661C54.7831 12.8488 54.5591 13.3481 54.4191 13.9641L54.5031 13.9921C54.7644 13.3575 55.0724 12.8628 55.4271 12.5081C55.7911 12.1535 56.1644 11.9061 56.5471 11.7661C56.9298 11.6168 57.2751 11.5421 57.5831 11.5421C57.9938 11.5421 58.3578 11.6635 58.6751 11.9061C58.9924 12.1488 59.2444 12.4988 59.4311 12.9561C59.6178 13.4041 59.7111 13.9455 59.7111 14.5801C59.7111 15.1775 59.6318 15.7841 59.4731 16.4001C59.3238 17.0068 59.0811 17.5668 58.7451 18.0801C58.4184 18.5935 57.9891 19.0088 57.4571 19.3261C56.9344 19.6341 56.2998 19.7881 55.5531 19.7881ZM55.8331 18.8081C56.1784 18.8081 56.4864 18.6915 56.7571 18.4581C57.0278 18.2248 57.2564 17.9121 57.4431 17.5201C57.6391 17.1281 57.7838 16.6941 57.8771 16.2181C57.9798 15.7421 58.0311 15.2708 58.0311 14.8041C58.0311 13.9735 57.9238 13.3901 57.7091 13.0541C57.4944 12.7088 57.2191 12.5361 56.8831 12.5361C56.5658 12.5361 56.2578 12.6528 55.9591 12.8861C55.6698 13.1101 55.4131 13.4135 55.1891 13.7961C54.9651 14.1695 54.7878 14.5848 54.6571 15.0421C54.5264 15.4995 54.4611 15.9475 54.4611 16.3861C54.4611 16.8248 54.5078 17.2308 54.6011 17.6041C54.6944 17.9681 54.8391 18.2621 55.0351 18.4861C55.2311 18.7008 55.4971 18.8081 55.8331 18.8081ZM61.9957 18.2761C61.9957 17.9308 62.0144 17.4735 62.0517 16.9041C62.0891 16.3255 62.1497 15.6861 62.2337 14.9861C62.3177 14.2861 62.4344 13.5675 62.5837 12.8301C62.7331 12.0835 62.9244 11.3648 63.1577 10.6741C63.3911 9.97412 63.6664 9.34879 63.9837 8.79812C64.3104 8.23812 64.6931 7.79479 65.1317 7.46812C65.5704 7.14146 66.0697 6.97812 66.6297 6.97812C67.2084 6.97812 67.6797 7.13212 68.0437 7.44012C68.4077 7.74812 68.5897 8.13546 68.5897 8.60212C68.5897 8.87279 68.5244 9.13412 68.3937 9.38612C68.2724 9.62879 68.0904 9.82946 67.8477 9.98812C67.6051 10.1468 67.3157 10.2261 66.9797 10.2261C66.8957 10.2261 66.8071 10.2215 66.7137 10.2121C66.6204 10.1935 66.5271 10.1655 66.4337 10.1281C66.5084 10.0721 66.5924 9.97412 66.6857 9.83412C66.7884 9.68479 66.8724 9.51679 66.9377 9.33012C67.0124 9.14346 67.0497 8.96146 67.0497 8.78412C67.0497 8.53212 66.9937 8.33146 66.8817 8.18212C66.7697 8.03279 66.6204 7.95812 66.4337 7.95812C66.1071 7.95812 65.8131 8.11679 65.5517 8.43412C65.2904 8.75146 65.0617 9.17612 64.8657 9.70812C64.6697 10.2401 64.5017 10.8421 64.3617 11.5141C64.2217 12.1768 64.1051 12.8675 64.0117 13.5861C63.9184 14.2955 63.8437 14.9815 63.7877 15.6441C63.7317 16.3068 63.6897 16.9041 63.6617 17.4361C63.6431 17.9681 63.6337 18.3881 63.6337 18.6961C63.6337 18.9668 63.6337 19.1955 63.6337 19.3821C63.6431 19.5595 63.6524 19.7275 63.6617 19.8861C63.6804 20.0448 63.7037 20.2221 63.7317 20.4181C63.7597 20.6141 63.8017 20.8615 63.8577 21.1601C63.5217 21.0481 63.2324 20.9035 62.9897 20.7261C62.7564 20.5581 62.5651 20.3528 62.4157 20.1101C62.2664 19.8768 62.1591 19.6061 62.0937 19.2981C62.0284 18.9901 61.9957 18.6495 61.9957 18.2761ZM66.1397 11.4301C66.1491 11.4955 66.1537 11.5655 66.1537 11.6401C66.1631 11.7055 66.1677 11.7708 66.1677 11.8361C66.1677 12.2935 66.0837 12.6015 65.9157 12.7601C65.7477 12.9188 65.5191 12.9981 65.2297 12.9981C64.8284 12.9981 64.4551 12.9981 64.1097 12.9981C63.7644 12.9888 63.4331 12.9935 63.1157 13.0121C62.7984 13.0308 62.4717 13.0821 62.1357 13.1661C61.7997 13.2408 61.4357 13.3715 61.0437 13.5581C61.0344 13.4835 61.0251 13.4088 61.0157 13.3341C61.0157 13.2501 61.0157 13.1755 61.0157 13.1101C61.0157 12.7461 61.0951 12.4755 61.2537 12.2981C61.4217 12.1115 61.6457 11.9901 61.9257 11.9341C62.2057 11.8688 62.5137 11.8361 62.8497 11.8361C63.0831 11.8361 63.3257 11.8455 63.5777 11.8641C63.8297 11.8735 64.0677 11.8781 64.2917 11.8781C64.6371 11.8781 64.9731 11.8501 65.2997 11.7941C65.6357 11.7381 65.9157 11.6168 66.1397 11.4301ZM67.7077 18.2761C67.7077 17.9308 67.7264 17.4735 67.7637 16.9041C67.8011 16.3255 67.8617 15.6861 67.9457 14.9861C68.0297 14.2861 68.1464 13.5675 68.2957 12.8301C68.4451 12.0835 68.6364 11.3648 68.8697 10.6741C69.1031 9.97412 69.3784 9.34879 69.6957 8.79812C70.0224 8.23812 70.4051 7.79479 70.8437 7.46812C71.2824 7.14146 71.7817 6.97812 72.3417 6.97812C72.9204 6.97812 73.3917 7.13212 73.7557 7.44012C74.1197 7.74812 74.3017 8.13546 74.3017 8.60212C74.3017 8.87279 74.2364 9.13412 74.1057 9.38612C73.9844 9.62879 73.8024 9.82946 73.5597 9.98812C73.3171 10.1468 73.0277 10.2261 72.6917 10.2261C72.6077 10.2261 72.5191 10.2215 72.4257 10.2121C72.3324 10.1935 72.2391 10.1655 72.1457 10.1281C72.2204 10.0721 72.3044 9.97412 72.3977 9.83412C72.5004 9.68479 72.5844 9.51679 72.6497 9.33012C72.7244 9.14346 72.7617 8.96146 72.7617 8.78412C72.7617 8.53212 72.7057 8.33146 72.5937 8.18212C72.4817 8.03279 72.3324 7.95812 72.1457 7.95812C71.8191 7.95812 71.5251 8.11679 71.2637 8.43412C71.0024 8.75146 70.7737 9.17612 70.5777 9.70812C70.3817 10.2401 70.2137 10.8421 70.0737 11.5141C69.9337 12.1768 69.8171 12.8675 69.7237 13.5861C69.6304 14.2955 69.5557 14.9815 69.4997 15.6441C69.4437 16.3068 69.4017 16.9041 69.3737 17.4361C69.3551 17.9681 69.3457 18.3881 69.3457 18.6961C69.3457 18.9668 69.3457 19.1955 69.3457 19.3821C69.3551 19.5595 69.3644 19.7275 69.3737 19.8861C69.3924 20.0448 69.4157 20.2221 69.4437 20.4181C69.4717 20.6141 69.5137 20.8615 69.5697 21.1601C69.2337 21.0481 68.9444 20.9035 68.7017 20.7261C68.4684 20.5581 68.2771 20.3528 68.1277 20.1101C67.9784 19.8768 67.8711 19.6061 67.8057 19.2981C67.7404 18.9901 67.7077 18.6495 67.7077 18.2761ZM71.8517 11.4301C71.8611 11.4955 71.8657 11.5655 71.8657 11.6401C71.8751 11.7055 71.8797 11.7708 71.8797 11.8361C71.8797 12.2935 71.7957 12.6015 71.6277 12.7601C71.4597 12.9188 71.2311 12.9981 70.9417 12.9981C70.5404 12.9981 70.1671 12.9981 69.8217 12.9981C69.4764 12.9888 69.1451 12.9935 68.8277 13.0121C68.5104 13.0308 68.1837 13.0821 67.8477 13.1661C67.5117 13.2408 67.1477 13.3715 66.7557 13.5581C66.7464 13.4835 66.7371 13.4088 66.7277 13.3341C66.7277 13.2501 66.7277 13.1755 66.7277 13.1101C66.7277 12.7461 66.8071 12.4755 66.9657 12.2981C67.1337 12.1115 67.3577 11.9901 67.6377 11.9341C67.9177 11.8688 68.2257 11.8361 68.5617 11.8361C68.7951 11.8361 69.0377 11.8455 69.2897 11.8641C69.5417 11.8735 69.7797 11.8781 70.0037 11.8781C70.3491 11.8781 70.6851 11.8501 71.0117 11.7941C71.3477 11.7381 71.6277 11.6168 71.8517 11.4301Z" fill="white"/>
    </g>
    <defs>
        <filter id="filter0_d_3004_2946" x="0.718772" y="0.24757" width="84.1064" height="33.9287" filterUnits="userSpaceOnUse" color-interpolation-filters="sRGB">
            <feFlood flood-opacity="0" result="BackgroundImageFix"/>
            <feColorMatrix in="SourceAlpha" type="matrix" values="0 0 0 0 0 0 0 0 0 0 0 0 0 0 0 0 0 0 127 0" result="hardAlpha"/>
            <feOffset dy="1.33056"/>
            <feGaussianBlur stdDeviation="1.33056"/>
            <feColorMatrix type="matrix" values="0 0 0 0 0 0 0 0 0 0 0 0 0 0 0 0 0 0 0.1 0"/>
            <feBlend mode="normal" in2="BackgroundImageFix" result="effect1_dropShadow_3004_2946"/>
            <feBlend mode="normal" in="SourceGraphic" in2="effect1_dropShadow_3004_2946" result="shape"/>
        </filter>
        <linearGradient id="paint0_linear_3004_2946" x1="2.69108" y1="1.57813" x2="74.1326" y2="56.0815" gradientUnits="userSpaceOnUse">
            <stop stop-color="#FCA785"/>
            <stop offset="0.989583" stop-color="#FE724C"/>
        </linearGradient>
    </defs>
</svg>
