<svg width="85" height="35" viewBox="0 0 85 35" fill="none"
    xmlns="http://www.w3.org/2000/svg">
    <g filter="url(#filter0_d_3004_2916)">
        <path d="M7.2612 27.2803H3.26953L7.2612 30.6067V27.2803Z" fill="#C1555D"/>
        <path d="M3.26953 8.65277C3.26953 4.97854 6.24808 2 9.92231 2H79.3883C81.5282 2 82.7929 4.39767 81.5845 6.1638L78.3552 10.8836C76.8056 13.1483 76.8056 16.1322 78.3552 18.397L81.5845 23.1168C82.7929 24.8829 81.5282 27.2806 79.3883 27.2806H3.26953V8.65277Z" fill="url(#paint0_linear_3004_2916)"/>
        <path d="M13.3662 20.294C13.3662 20.126 13.4082 19.9627 13.4922 19.804C13.5762 19.636 13.6928 19.482 13.8422 19.342C13.9915 19.1927 14.1642 19.062 14.3602 18.95C14.5655 18.8287 14.7755 18.74 14.9902 18.684C15.2142 18.6187 15.4382 18.586 15.6622 18.586C15.7462 18.586 15.8162 18.5907 15.8722 18.6C15.9375 18.6 16.0168 18.6047 16.1102 18.614C16.2128 18.614 16.3575 18.614 16.5442 18.614C16.9828 18.614 17.4215 18.6 17.8602 18.572C18.2988 18.544 18.7142 18.5067 19.1062 18.46C19.4982 18.4133 19.8388 18.362 20.1282 18.306C20.4268 18.25 20.6555 18.1847 20.8142 18.11C20.7768 18.782 20.6042 19.3093 20.2962 19.692C19.9975 20.0747 19.6008 20.266 19.1062 20.266C18.9195 20.266 18.6582 20.238 18.3222 20.182C17.9955 20.1353 17.6175 20.0887 17.1882 20.042C16.7588 20.0047 16.2922 19.986 15.7882 19.986C15.3215 19.986 14.8782 20.0093 14.4582 20.056C14.0475 20.112 13.6835 20.1913 13.3662 20.294ZM16.3622 13.98C16.0262 13.98 15.7275 13.9147 15.4662 13.784C15.2142 13.644 15.0135 13.4527 14.8642 13.21C14.7242 12.958 14.6542 12.6733 14.6542 12.356C14.6542 11.9173 14.7802 11.5253 15.0322 11.18C15.2935 10.8347 15.6528 10.564 16.1102 10.368C16.5675 10.1627 17.0808 10.06 17.6502 10.06C18.2942 10.06 18.8542 10.1673 19.3302 10.382C19.8155 10.5967 20.1888 10.9 20.4502 11.292C20.7208 11.684 20.8562 12.146 20.8562 12.678C20.8562 13.2287 20.7208 13.7933 20.4502 14.372C20.1888 14.9507 19.8015 15.5293 19.2882 16.108C18.7842 16.6773 18.1728 17.228 17.4542 17.76C16.7448 18.292 15.9468 18.7867 15.0602 19.244L14.1362 19.216C14.7802 18.7493 15.3635 18.2967 15.8862 17.858C16.4088 17.41 16.8662 16.9713 17.2582 16.542C17.6502 16.1127 17.9722 15.6973 18.2242 15.296C18.4855 14.8853 18.6768 14.484 18.7982 14.092C18.9288 13.6907 18.9942 13.3033 18.9942 12.93C18.9942 12.3793 18.8682 11.95 18.6162 11.642C18.3642 11.3247 18.0188 11.166 17.5802 11.166C17.1975 11.166 16.8848 11.292 16.6422 11.544C16.4088 11.7867 16.2922 12.1133 16.2922 12.524C16.2922 12.7853 16.3388 13.0373 16.4322 13.28C16.5255 13.5133 16.6608 13.7327 16.8382 13.938C16.7542 13.9473 16.6702 13.9567 16.5862 13.966C16.5115 13.9753 16.4368 13.98 16.3622 13.98ZM25.1289 20.35C24.5596 20.35 24.0556 20.2567 23.6169 20.07C23.1876 19.8927 22.8469 19.6453 22.5949 19.328C22.3522 19.0013 22.2309 18.628 22.2309 18.208C22.2309 17.8627 22.3056 17.5593 22.4549 17.298C22.6042 17.0273 22.8096 16.8173 23.0709 16.668C23.3322 16.5093 23.6309 16.43 23.9669 16.43C24.0509 16.43 24.1349 16.4347 24.2189 16.444C24.3122 16.444 24.3962 16.4533 24.4709 16.472C24.1069 16.8827 23.9249 17.3447 23.9249 17.858C23.9249 18.2873 24.0416 18.6327 24.2749 18.894C24.5176 19.1553 24.8442 19.286 25.2549 19.286C25.7869 19.286 26.2256 19.0947 26.5709 18.712C26.9162 18.32 27.0889 17.83 27.0889 17.242C27.0889 16.738 26.9769 16.3087 26.7529 15.954C26.5289 15.59 26.2116 15.31 25.8009 15.114C25.3996 14.918 24.9236 14.82 24.3729 14.82C24.1676 14.82 23.9389 14.8387 23.6869 14.876C23.4442 14.904 23.1876 14.946 22.9169 15.002L23.7289 10.312L24.5829 10.578L24.8909 10.942L24.4009 13.952C24.5316 13.9333 24.6762 13.9193 24.8349 13.91C25.0029 13.8913 25.1616 13.882 25.3109 13.882C26.0389 13.882 26.6642 14.0033 27.1869 14.246C27.7189 14.4887 28.1296 14.834 28.4189 15.282C28.7176 15.7207 28.8669 16.2387 28.8669 16.836C28.8669 17.4893 28.6989 18.0867 28.3629 18.628C28.0362 19.16 27.5929 19.58 27.0329 19.888C26.4729 20.196 25.8382 20.35 25.1289 20.35ZM28.8529 10.06C28.8902 10.1253 28.9182 10.2513 28.9369 10.438C28.9649 10.6153 28.9789 10.7927 28.9789 10.97C28.9789 11.3433 28.9136 11.6187 28.7829 11.796C28.6522 11.964 28.4469 12.048 28.1669 12.048C28.0456 12.048 27.8262 12.0293 27.5089 11.992C27.1916 11.9547 26.8322 11.9033 26.4309 11.838C26.0296 11.7727 25.6236 11.7027 25.2129 11.628C24.8022 11.5533 24.4476 11.488 24.1489 11.432C23.8316 11.3573 23.5936 11.222 23.4349 11.026C23.2856 10.83 23.1922 10.5453 23.1549 10.172C23.4442 10.2093 23.7522 10.242 24.0789 10.27C24.4149 10.2887 24.7789 10.298 25.1709 10.298C25.5442 10.298 25.9456 10.2887 26.3749 10.27C26.8042 10.2513 27.2336 10.2233 27.6629 10.186C28.1016 10.1487 28.4982 10.1067 28.8529 10.06ZM32.651 11.012C32.4176 11.012 32.1983 11.1333 31.993 11.376C31.7876 11.6093 31.6196 11.922 31.489 12.314C31.3583 12.6967 31.293 13.1073 31.293 13.546C31.293 14.0033 31.3676 14.3673 31.517 14.638C31.6663 14.9087 31.8716 15.044 32.133 15.044C32.3663 15.044 32.5716 14.9367 32.749 14.722C32.9356 14.498 33.0803 14.1947 33.183 13.812C33.295 13.4293 33.351 13 33.351 12.524C33.351 12.0387 33.2903 11.6653 33.169 11.404C33.057 11.1427 32.8843 11.012 32.651 11.012ZM32.315 10.396C32.651 10.2653 32.945 10.2 33.197 10.2C33.701 10.2 34.0883 10.3913 34.359 10.774C34.639 11.1567 34.779 11.6933 34.779 12.384C34.779 13.0467 34.6576 13.6487 34.415 14.19C34.1723 14.722 33.8456 15.142 33.435 15.45C33.0243 15.758 32.553 15.912 32.021 15.912C31.377 15.912 30.8636 15.6787 30.481 15.212C30.0983 14.736 29.907 14.106 29.907 13.322C29.907 12.79 29.9956 12.3 30.173 11.852C30.3596 11.3947 30.6116 11.0073 30.929 10.69C31.2556 10.3727 31.629 10.1627 32.049 10.06L32.315 10.396ZM36.781 9.248C37.0236 9.37867 37.2243 9.57933 37.383 9.85C37.5416 10.1207 37.621 10.4007 37.621 10.69C37.621 10.914 37.565 11.25 37.453 11.698C37.341 12.1367 37.1963 12.6547 37.019 13.252C36.8416 13.84 36.6456 14.4793 36.431 15.17C36.2256 15.8513 36.0203 16.5467 35.815 17.256C35.619 17.956 35.4416 18.642 35.283 19.314C35.1336 19.9767 35.0263 20.588 34.961 21.148C34.6063 21.1107 34.3076 20.9613 34.065 20.7C33.8316 20.448 33.715 20.1493 33.715 19.804C33.715 19.552 33.7756 19.188 33.897 18.712C34.0183 18.236 34.1816 17.6853 34.387 17.06C34.6016 16.4347 34.8256 15.772 35.059 15.072C35.2923 14.372 35.5256 13.6673 35.759 12.958C35.9923 12.2487 36.1976 11.5767 36.375 10.942C36.5616 10.3073 36.697 9.74267 36.781 9.248ZM39.847 15.436C39.6136 15.436 39.3943 15.5573 39.189 15.8C38.9836 16.0333 38.8156 16.346 38.685 16.738C38.5543 17.1207 38.489 17.5313 38.489 17.97C38.489 18.4273 38.5636 18.7913 38.713 19.062C38.8623 19.3327 39.0676 19.468 39.329 19.468C39.5623 19.468 39.7676 19.3607 39.945 19.146C40.1316 18.922 40.2763 18.6187 40.379 18.236C40.491 17.8533 40.547 17.424 40.547 16.948C40.547 16.4627 40.4863 16.0893 40.365 15.828C40.253 15.5667 40.0803 15.436 39.847 15.436ZM39.511 14.82C39.847 14.6893 40.141 14.624 40.393 14.624C40.897 14.624 41.2843 14.8153 41.555 15.198C41.835 15.5807 41.975 16.1173 41.975 16.808C41.975 17.4707 41.8536 18.0727 41.611 18.614C41.3683 19.146 41.0416 19.566 40.631 19.874C40.2203 20.182 39.749 20.336 39.217 20.336C38.573 20.336 38.0596 20.1027 37.677 19.636C37.2943 19.16 37.103 18.53 37.103 17.746C37.103 17.214 37.1916 16.724 37.369 16.276C37.5556 15.8187 37.8076 15.4313 38.125 15.114C38.4516 14.7967 38.825 14.5867 39.245 14.484L39.511 14.82ZM50.6586 20.21C50.3039 20.21 49.9492 20.14 49.5946 20C49.2399 19.8507 48.9179 19.6267 48.6286 19.328C48.3486 19.0293 48.1199 18.6513 47.9426 18.194C47.7746 17.7273 47.6906 17.1767 47.6906 16.542C47.6906 15.7673 47.8166 15.0487 48.0686 14.386C48.3206 13.714 48.6752 13.1493 49.1326 12.692C49.5992 12.2253 50.1452 11.9033 50.7706 11.726C50.8732 11.726 50.9572 11.754 51.0226 11.81C51.0972 11.866 51.1392 11.9313 51.1486 12.006C50.8219 12.2113 50.5046 12.5053 50.1966 12.888C49.8886 13.2707 49.6646 13.77 49.5246 14.386L49.6086 14.414C49.8699 13.7793 50.1779 13.2847 50.5326 12.93C50.8966 12.5753 51.2699 12.328 51.6526 12.188C52.0352 12.0387 52.3806 11.964 52.6886 11.964C53.0992 11.964 53.4632 12.0853 53.7806 12.328C54.0979 12.5707 54.3499 12.9207 54.5366 13.378C54.7232 13.826 54.8166 14.3673 54.8166 15.002C54.8166 15.5993 54.7372 16.206 54.5786 16.822C54.4292 17.4287 54.1866 17.9887 53.8506 18.502C53.5239 19.0153 53.0946 19.4307 52.5626 19.748C52.0399 20.056 51.4052 20.21 50.6586 20.21ZM50.9386 19.23C51.2839 19.23 51.5919 19.1133 51.8626 18.88C52.1332 18.6467 52.3619 18.334 52.5486 17.942C52.7446 17.55 52.8892 17.116 52.9826 16.64C53.0852 16.164 53.1366 15.6927 53.1366 15.226C53.1366 14.3953 53.0292 13.812 52.8146 13.476C52.5999 13.1307 52.3246 12.958 51.9886 12.958C51.6712 12.958 51.3632 13.0747 51.0646 13.308C50.7752 13.532 50.5186 13.8353 50.2946 14.218C50.0706 14.5913 49.8932 15.0067 49.7626 15.464C49.6319 15.9213 49.5666 16.3693 49.5666 16.808C49.5666 17.2467 49.6132 17.6527 49.7066 18.026C49.7999 18.39 49.9446 18.684 50.1406 18.908C50.3366 19.1227 50.6026 19.23 50.9386 19.23ZM57.1012 18.698C57.1012 18.3527 57.1199 17.8953 57.1572 17.326C57.1945 16.7473 57.2552 16.108 57.3392 15.408C57.4232 14.708 57.5399 13.9893 57.6892 13.252C57.8385 12.5053 58.0299 11.7867 58.2632 11.096C58.4965 10.396 58.7719 9.77067 59.0892 9.22C59.4159 8.66 59.7985 8.21667 60.2372 7.89C60.6759 7.56333 61.1752 7.4 61.7352 7.4C62.3139 7.4 62.7852 7.554 63.1492 7.862C63.5132 8.17 63.6952 8.55733 63.6952 9.024C63.6952 9.29467 63.6299 9.556 63.4992 9.808C63.3779 10.0507 63.1959 10.2513 62.9532 10.41C62.7105 10.5687 62.4212 10.648 62.0852 10.648C62.0012 10.648 61.9125 10.6433 61.8192 10.634C61.7259 10.6153 61.6325 10.5873 61.5392 10.55C61.6139 10.494 61.6979 10.396 61.7912 10.256C61.8939 10.1067 61.9779 9.93867 62.0432 9.752C62.1179 9.56533 62.1552 9.38333 62.1552 9.206C62.1552 8.954 62.0992 8.75333 61.9872 8.604C61.8752 8.45467 61.7259 8.38 61.5392 8.38C61.2125 8.38 60.9185 8.53867 60.6572 8.856C60.3959 9.17333 60.1672 9.598 59.9712 10.13C59.7752 10.662 59.6072 11.264 59.4672 11.936C59.3272 12.5987 59.2105 13.2893 59.1172 14.008C59.0239 14.7173 58.9492 15.4033 58.8932 16.066C58.8372 16.7287 58.7952 17.326 58.7672 17.858C58.7485 18.39 58.7392 18.81 58.7392 19.118C58.7392 19.3887 58.7392 19.6173 58.7392 19.804C58.7485 19.9813 58.7579 20.1493 58.7672 20.308C58.7859 20.4667 58.8092 20.644 58.8372 20.84C58.8652 21.036 58.9072 21.2833 58.9632 21.582C58.6272 21.47 58.3379 21.3253 58.0952 21.148C57.8619 20.98 57.6705 20.7747 57.5212 20.532C57.3719 20.2987 57.2645 20.028 57.1992 19.72C57.1339 19.412 57.1012 19.0713 57.1012 18.698ZM61.2452 11.852C61.2545 11.9173 61.2592 11.9873 61.2592 12.062C61.2685 12.1273 61.2732 12.1927 61.2732 12.258C61.2732 12.7153 61.1892 13.0233 61.0212 13.182C60.8532 13.3407 60.6245 13.42 60.3352 13.42C59.9339 13.42 59.5605 13.42 59.2152 13.42C58.8699 13.4107 58.5385 13.4153 58.2212 13.434C57.9039 13.4527 57.5772 13.504 57.2412 13.588C56.9052 13.6627 56.5412 13.7933 56.1492 13.98C56.1399 13.9053 56.1305 13.8307 56.1212 13.756C56.1212 13.672 56.1212 13.5973 56.1212 13.532C56.1212 13.168 56.2005 12.8973 56.3592 12.72C56.5272 12.5333 56.7512 12.412 57.0312 12.356C57.3112 12.2907 57.6192 12.258 57.9552 12.258C58.1885 12.258 58.4312 12.2673 58.6832 12.286C58.9352 12.2953 59.1732 12.3 59.3972 12.3C59.7425 12.3 60.0785 12.272 60.4052 12.216C60.7412 12.16 61.0212 12.0387 61.2452 11.852ZM62.8132 18.698C62.8132 18.3527 62.8319 17.8953 62.8692 17.326C62.9065 16.7473 62.9672 16.108 63.0512 15.408C63.1352 14.708 63.2519 13.9893 63.4012 13.252C63.5505 12.5053 63.7419 11.7867 63.9752 11.096C64.2085 10.396 64.4839 9.77067 64.8012 9.22C65.1279 8.66 65.5105 8.21667 65.9492 7.89C66.3879 7.56333 66.8872 7.4 67.4472 7.4C68.0259 7.4 68.4972 7.554 68.8612 7.862C69.2252 8.17 69.4072 8.55733 69.4072 9.024C69.4072 9.29467 69.3419 9.556 69.2112 9.808C69.0899 10.0507 68.9079 10.2513 68.6652 10.41C68.4225 10.5687 68.1332 10.648 67.7972 10.648C67.7132 10.648 67.6245 10.6433 67.5312 10.634C67.4379 10.6153 67.3445 10.5873 67.2512 10.55C67.3259 10.494 67.4099 10.396 67.5032 10.256C67.6059 10.1067 67.6899 9.93867 67.7552 9.752C67.8299 9.56533 67.8672 9.38333 67.8672 9.206C67.8672 8.954 67.8112 8.75333 67.6992 8.604C67.5872 8.45467 67.4379 8.38 67.2512 8.38C66.9245 8.38 66.6305 8.53867 66.3692 8.856C66.1079 9.17333 65.8792 9.598 65.6832 10.13C65.4872 10.662 65.3192 11.264 65.1792 11.936C65.0392 12.5987 64.9225 13.2893 64.8292 14.008C64.7359 14.7173 64.6612 15.4033 64.6052 16.066C64.5492 16.7287 64.5072 17.326 64.4792 17.858C64.4605 18.39 64.4512 18.81 64.4512 19.118C64.4512 19.3887 64.4512 19.6173 64.4512 19.804C64.4605 19.9813 64.4699 20.1493 64.4792 20.308C64.4979 20.4667 64.5212 20.644 64.5492 20.84C64.5772 21.036 64.6192 21.2833 64.6752 21.582C64.3392 21.47 64.0499 21.3253 63.8072 21.148C63.5739 20.98 63.3825 20.7747 63.2332 20.532C63.0839 20.2987 62.9765 20.028 62.9112 19.72C62.8459 19.412 62.8132 19.0713 62.8132 18.698ZM66.9572 11.852C66.9665 11.9173 66.9712 11.9873 66.9712 12.062C66.9805 12.1273 66.9852 12.1927 66.9852 12.258C66.9852 12.7153 66.9012 13.0233 66.7332 13.182C66.5652 13.3407 66.3365 13.42 66.0472 13.42C65.6459 13.42 65.2725 13.42 64.9272 13.42C64.5819 13.4107 64.2505 13.4153 63.9332 13.434C63.6159 13.4527 63.2892 13.504 62.9532 13.588C62.6172 13.6627 62.2532 13.7933 61.8612 13.98C61.8519 13.9053 61.8425 13.8307 61.8332 13.756C61.8332 13.672 61.8332 13.5973 61.8332 13.532C61.8332 13.168 61.9125 12.8973 62.0712 12.72C62.2392 12.5333 62.4632 12.412 62.7432 12.356C63.0232 12.2907 63.3312 12.258 63.6672 12.258C63.9005 12.258 64.1432 12.2673 64.3952 12.286C64.6472 12.2953 64.8852 12.3 65.1092 12.3C65.4545 12.3 65.7905 12.272 66.1172 12.216C66.4532 12.16 66.7332 12.0387 66.9572 11.852Z" fill="white"/>
    </g>
    <defs>
        <filter id="filter0_d_3004_2916" x="0.60842" y="0.669445" width="84.1064" height="33.9287" filterUnits="userSpaceOnUse" color-interpolation-filters="sRGB">
            <feFlood flood-opacity="0" result="BackgroundImageFix"/>
            <feColorMatrix in="SourceAlpha" type="matrix" values="0 0 0 0 0 0 0 0 0 0 0 0 0 0 0 0 0 0 127 0" result="hardAlpha"/>
            <feOffset dy="1.33056"/>
            <feGaussianBlur stdDeviation="1.33056"/>
            <feColorMatrix type="matrix" values="0 0 0 0 0 0 0 0 0 0 0 0 0 0 0 0 0 0 0.1 0"/>
            <feBlend mode="normal" in2="BackgroundImageFix" result="effect1_dropShadow_3004_2916"/>
            <feBlend mode="normal" in="SourceGraphic" in2="effect1_dropShadow_3004_2916" result="shape"/>
        </filter>
        <linearGradient id="paint0_linear_3004_2916" x1="82.7425" y1="2" x2="11.301" y2="56.5034" gradientUnits="userSpaceOnUse">
            <stop stop-color="#FCA785"/>
            <stop offset="0.989583" stop-color="#FE724C"/>
        </linearGradient>
    </defs>
</svg>
