<svg width="101" height="37" viewBox="0 0 101 37" fill="none"
    xmlns="http://www.w3.org/2000/svg">
    <g filter="url(#filter0_d_3001_3750)">
        <path d="M7.32557 29.3955H3L7.32557 33.0002V29.3955Z" fill="#C1555D"/>
        <path d="M3 8.65278C3 4.97856 5.97855 2 9.65278 2H89.3994C90.3595 2 91.2451 2.51715 91.717 3.35327L97.0043 12.7228C98.1784 14.8032 98.1469 17.3534 96.9218 19.4042L91.7277 28.0989C91.2474 28.9029 90.3798 29.3953 89.4432 29.3953H3V8.65278Z" fill="url(#paint0_linear_3001_3750)"/>
        <path d="M22.7189 21.3326C22.1956 21.3326 21.7299 21.2484 21.3218 21.0798C20.9227 20.9113 20.6078 20.6762 20.3771 20.3746C20.1554 20.0642 20.0445 19.7094 20.0445 19.3102C20.0445 19.0086 20.1066 18.7425 20.2308 18.5119C20.355 18.2724 20.5191 18.0861 20.7231 17.953C20.936 17.82 21.1799 17.7534 21.4549 17.7534C21.5613 17.7534 21.6633 17.7579 21.7609 17.7667C21.8585 17.7667 21.9294 17.7756 21.9738 17.7934C21.6279 18.1748 21.4549 18.6006 21.4549 19.0707C21.4549 19.4787 21.5702 19.8025 21.8008 20.042C22.0403 20.2726 22.3641 20.3879 22.7721 20.3879C23.3221 20.3879 23.7656 20.1972 24.1027 19.8158C24.4486 19.4344 24.6216 18.9465 24.6216 18.3522C24.6216 17.8732 24.5152 17.4607 24.3023 17.1148C24.0983 16.7688 23.8011 16.5027 23.4108 16.3164C23.0294 16.1213 22.577 16.0237 22.0536 16.0237C21.8496 16.0237 21.6367 16.037 21.415 16.0636C21.1932 16.0902 20.9537 16.1346 20.6965 16.1967L21.4682 11.7926L22.0802 12.0454L22.373 12.4046L21.9073 15.3052C22.0315 15.2875 22.1689 15.2742 22.3197 15.2653C22.4705 15.2476 22.6169 15.2387 22.7588 15.2387C23.433 15.2387 24.0184 15.3584 24.5152 15.5979C25.0208 15.8374 25.4155 16.1745 25.6994 16.6092C25.9832 17.0349 26.1251 17.5361 26.1251 18.1127C26.1251 18.7247 25.9743 19.2747 25.6727 19.7626C25.38 20.2416 24.9764 20.623 24.4619 20.9069C23.9475 21.1907 23.3664 21.3326 22.7189 21.3326ZM26.0852 11.5797C26.1207 11.6418 26.1473 11.7438 26.1651 11.8857C26.1917 12.0187 26.205 12.1562 26.205 12.2982C26.205 12.5998 26.1429 12.8215 26.0187 12.9634C25.8945 13.0965 25.7038 13.163 25.4466 13.163C25.3312 13.163 25.1272 13.1497 24.8345 13.1231C24.5506 13.0876 24.2224 13.0477 23.8499 13.0034C23.4862 12.9501 23.1225 12.8969 22.7588 12.8437C22.3951 12.7816 22.0802 12.7239 21.8141 12.6707C21.5303 12.6086 21.3174 12.5022 21.1755 12.3514C21.0424 12.2006 20.9581 11.9788 20.9227 11.6861C21.1444 11.7216 21.3972 11.7482 21.6811 11.7659C21.9738 11.7748 22.302 11.7792 22.6657 11.7792C23.0116 11.7792 23.3842 11.7704 23.7834 11.7526C24.1914 11.7349 24.595 11.7127 24.9942 11.6861C25.3933 11.6506 25.757 11.6151 26.0852 11.5797ZM31.6666 12.5909C31.3029 12.5909 30.9614 12.7195 30.6421 12.9767C30.3316 13.234 30.0566 13.5799 29.8171 14.0146C29.5776 14.4404 29.3913 14.9149 29.2583 15.4383C29.1252 15.9616 29.0587 16.4894 29.0587 17.0216C29.0587 17.6248 29.1208 18.1837 29.245 18.6981C29.378 19.2037 29.5776 19.6118 29.8437 19.9223C30.1187 20.2327 30.4647 20.3879 30.8816 20.3879C31.263 20.3879 31.5956 20.2638 31.8795 20.0154C32.1722 19.7581 32.4161 19.4166 32.6113 18.9909C32.8153 18.5651 32.9661 18.0905 33.0637 17.5672C33.1701 17.0349 33.2233 16.4939 33.2233 15.9439C33.2233 15.1101 33.1479 14.4492 32.9971 13.9614C32.8552 13.4735 32.6645 13.1231 32.425 12.9102C32.1944 12.6973 31.9416 12.5909 31.6666 12.5909ZM31.1078 12.1119C31.3561 11.9966 31.5868 11.9123 31.7996 11.8591C32.0214 11.8059 32.2299 11.7792 32.425 11.7792C32.9217 11.7792 33.3342 11.9389 33.6624 12.2583C33.9906 12.5687 34.2346 12.9901 34.3942 13.5223C34.5628 14.0456 34.647 14.6355 34.647 15.2919C34.647 15.8419 34.5982 16.4051 34.5007 16.9817C34.4031 17.5494 34.2479 18.0905 34.035 18.605C33.831 19.1195 33.5693 19.5807 33.2499 19.9888C32.9306 20.3968 32.5492 20.7206 32.1057 20.9601C31.6622 21.1907 31.1565 21.306 30.5888 21.306C30.234 21.306 29.8836 21.2218 29.5377 21.0532C29.1918 20.8847 28.8769 20.6274 28.593 20.2815C28.318 19.9267 28.0963 19.4787 27.9277 18.9376C27.7592 18.3877 27.6749 17.7401 27.6749 16.995C27.6749 16.0902 27.8035 15.2609 28.0608 14.5069C28.318 13.7529 28.6773 13.1187 29.1385 12.6042C29.5998 12.0808 30.1409 11.7305 30.7618 11.5531C30.9747 11.5531 31.09 11.7393 31.1078 12.1119ZM38.2602 12.2716C38.003 12.2716 37.7635 12.3913 37.5417 12.6308C37.32 12.8614 37.1381 13.1719 36.9962 13.5622C36.8631 13.9436 36.7966 14.3561 36.7966 14.7996C36.7966 15.3052 36.8853 15.7133 37.0627 16.0237C37.249 16.3253 37.4929 16.4761 37.7945 16.4761C38.0518 16.4761 38.278 16.3697 38.4731 16.1568C38.6683 15.935 38.8235 15.6334 38.9388 15.252C39.0541 14.8706 39.1118 14.4404 39.1118 13.9614C39.1118 13.438 39.0364 13.0255 38.8856 12.7239C38.7348 12.4224 38.5263 12.2716 38.2602 12.2716ZM37.9409 11.8724C38.2602 11.7482 38.5308 11.6861 38.7525 11.6861C39.1872 11.6861 39.5242 11.868 39.7637 12.2316C40.0121 12.5953 40.1363 13.0965 40.1363 13.7352C40.1363 14.365 40.0299 14.9371 39.817 15.4516C39.6041 15.9661 39.3158 16.3741 38.9521 16.6757C38.5884 16.9684 38.1759 17.1148 37.7147 17.1148C37.1292 17.1148 36.6636 16.893 36.3176 16.4495C35.9717 16.006 35.7987 15.4072 35.7987 14.6532C35.7987 14.1388 35.8785 13.6686 36.0382 13.2429C36.1979 12.8082 36.4196 12.4445 36.7035 12.1518C36.9962 11.8591 37.3333 11.6595 37.7147 11.5531L37.9409 11.8724ZM42.4914 10.7813C42.6333 10.9055 42.7486 11.0962 42.8373 11.3535C42.9349 11.6107 42.9837 11.8768 42.9837 12.1518C42.9837 12.3647 42.9216 12.684 42.7974 13.1098C42.6821 13.5267 42.5224 14.019 42.3184 14.5867C42.1233 15.1456 41.9104 15.7532 41.6797 16.4096C41.458 17.0571 41.2362 17.718 41.0145 18.3921C40.7927 19.0574 40.5976 19.7094 40.429 20.348C40.2605 20.9778 40.1407 21.5588 40.0698 22.0911C39.8125 22.0556 39.5952 21.9136 39.4178 21.6653C39.2493 21.4258 39.165 21.1419 39.165 20.8137C39.165 20.5742 39.2315 20.2283 39.3646 19.7759C39.5065 19.3235 39.6883 18.8001 39.9101 18.2058C40.1407 17.6115 40.3847 16.9817 40.6419 16.3164C40.908 15.6512 41.1653 14.9815 41.4136 14.3073C41.6709 13.6332 41.8926 12.9945 42.0789 12.3913C42.2741 11.7881 42.4116 11.2515 42.4914 10.7813ZM45.0061 16.4761C44.7489 16.4761 44.5094 16.5959 44.2876 16.8354C44.0659 17.066 43.884 17.3765 43.7421 17.7667C43.6091 18.1482 43.5425 18.5606 43.5425 19.0042C43.5425 19.5098 43.6312 19.9178 43.8086 20.2283C43.9949 20.5299 44.2388 20.6807 44.5404 20.6807C44.7977 20.6807 45.0239 20.5742 45.219 20.3613C45.4142 20.1396 45.5694 19.838 45.6847 19.4566C45.8 19.0751 45.8577 18.6449 45.8577 18.1659C45.8577 17.6426 45.7823 17.2301 45.6315 16.9285C45.4807 16.6269 45.2722 16.4761 45.0061 16.4761ZM44.6868 16.0769C45.0061 15.9528 45.2767 15.8907 45.4984 15.8907C45.9331 15.8907 46.2702 16.0725 46.5097 16.4362C46.758 16.7999 46.8822 17.3011 46.8822 17.9397C46.8822 18.5695 46.7758 19.1417 46.5629 19.6561C46.35 20.1706 46.0617 20.5787 45.698 20.8802C45.3343 21.173 44.9219 21.3193 44.4606 21.3193C43.8752 21.3193 43.4095 21.0976 43.0635 20.6541C42.7176 20.2105 42.5446 19.6118 42.5446 18.8578C42.5446 18.3433 42.6244 17.8732 42.7841 17.4474C42.9438 17.0128 43.1655 16.6491 43.4494 16.3564C43.7421 16.0636 44.0792 15.8641 44.4606 15.7576L44.6868 16.0769ZM56.4063 21.3326C55.7144 21.3326 55.1201 21.173 54.6234 20.8536C54.1355 20.5343 53.7319 20.113 53.4125 19.5896C53.1021 19.0574 52.8715 18.4764 52.7207 17.8466C52.5699 17.2079 52.4945 16.5781 52.4945 15.9572C52.4945 15.221 52.5832 14.5291 52.7606 13.8815C52.9469 13.234 53.2041 12.6485 53.5323 12.1252C53.8605 11.6018 54.2464 11.1583 54.6899 10.7946C55.1423 10.431 55.639 10.1648 56.1801 9.99631C56.2422 10.0052 56.2954 10.0318 56.3398 10.0761C56.393 10.1205 56.424 10.1648 56.4329 10.2092C56.1224 10.4043 55.8209 10.6261 55.5281 10.8745C55.2443 11.1228 54.987 11.4244 54.7564 11.7792C54.5346 12.1252 54.3528 12.5554 54.2109 13.0699L54.3173 13.0965C54.61 12.4844 54.9737 11.9744 55.4084 11.5664C55.843 11.1495 56.3087 10.8346 56.8055 10.6217C57.3022 10.4088 57.7856 10.3023 58.2558 10.3023C58.8235 10.3023 59.3468 10.4576 59.8258 10.768C60.3048 11.0785 60.6907 11.5531 60.9834 12.1917C61.285 12.8304 61.4358 13.642 61.4358 14.6266C61.4358 15.2476 61.3737 15.8774 61.2495 16.516C61.1342 17.1547 60.9524 17.7623 60.704 18.3389C60.4556 18.9155 60.1319 19.4299 59.7327 19.8823C59.3424 20.3259 58.8723 20.6807 58.3223 20.9468C57.7723 21.204 57.1337 21.3326 56.4063 21.3326ZM56.5793 20.5343C57.1115 20.5343 57.5861 20.3746 58.003 20.0553C58.4199 19.736 58.7702 19.3102 59.0541 18.778C59.3468 18.2369 59.5641 17.6426 59.7061 16.995C59.8569 16.3386 59.9323 15.6778 59.9323 15.0125C59.9323 14.09 59.8347 13.3582 59.6395 12.8171C59.4444 12.2671 59.1783 11.8724 58.8412 11.6329C58.513 11.3934 58.1405 11.2736 57.7235 11.2736C57.1825 11.2736 56.6857 11.4333 56.2333 11.7526C55.7898 12.0631 55.4039 12.48 55.0757 13.0034C54.7475 13.5178 54.4947 14.09 54.3173 14.7198C54.1399 15.3496 54.0512 15.9794 54.0512 16.6092C54.0512 17.1414 54.1 17.647 54.1976 18.126C54.2951 18.5961 54.4459 19.013 54.65 19.3767C54.854 19.7315 55.1157 20.0154 55.435 20.2283C55.7543 20.4323 56.1357 20.5343 56.5793 20.5343ZM64.9186 21.2262C64.5195 21.2262 64.2179 21.1375 64.0138 20.9601C63.8098 20.7827 63.7078 20.49 63.7078 20.0819C63.7078 19.7626 63.7344 19.359 63.7877 18.8711C63.8497 18.3832 63.9251 17.8421 64.0138 17.2478C64.1026 16.6446 64.1913 16.0149 64.28 15.3584C64.3687 14.702 64.4441 14.0501 64.5062 13.4025C64.5682 12.7461 64.5993 12.1208 64.5993 11.5264L65.9298 11.4599C65.9476 11.5309 65.9565 11.6063 65.9565 11.6861C65.9653 11.7571 65.9698 11.8325 65.9698 11.9123C65.9698 12.276 65.9298 12.7417 65.85 13.3094C65.7791 13.8771 65.6903 14.5158 65.5839 15.2254C65.4863 15.9261 65.3976 16.6757 65.3178 17.474C65.2468 18.2635 65.2113 19.0707 65.2113 19.8956C65.2113 20.0997 65.2158 20.3125 65.2247 20.5343C65.2335 20.7472 65.2557 20.969 65.2912 21.1996C65.2025 21.2085 65.1315 21.2129 65.0783 21.2129C65.0251 21.2218 64.9718 21.2262 64.9186 21.2262ZM63.455 16.8886C63.4461 16.8265 63.4373 16.7644 63.4284 16.7023C63.4284 16.6313 63.4284 16.5648 63.4284 16.5027C63.4284 16.1923 63.5038 15.9616 63.6546 15.8108C63.8054 15.6512 64.005 15.5492 64.2533 15.5048C64.5017 15.4516 64.7767 15.425 65.0783 15.425C65.2202 15.425 65.3932 15.4294 65.5972 15.4383C65.8101 15.4383 66.023 15.4427 66.2359 15.4516C66.4488 15.4605 66.6217 15.4649 66.7548 15.4649C67.0653 15.4649 67.3668 15.4427 67.6596 15.3984C67.9612 15.3451 68.214 15.2387 68.418 15.079C68.4269 15.1322 68.4313 15.1899 68.4313 15.252C68.4402 15.3052 68.4446 15.3629 68.4446 15.425C68.4446 15.8153 68.3692 16.0902 68.2184 16.2499C68.0676 16.4007 67.8636 16.4761 67.6063 16.4761C67.3846 16.4761 67.1761 16.4761 66.981 16.4761C66.7858 16.4672 66.5996 16.4628 66.4222 16.4628C66.1383 16.4628 65.8278 16.4717 65.4908 16.4894C65.1626 16.4983 64.8255 16.5338 64.4795 16.5959C64.1336 16.6491 63.7921 16.7467 63.455 16.8886ZM64.6791 11.9389C64.4308 11.9389 64.2356 11.9212 64.0937 11.8857C63.9518 11.8502 63.8497 11.7837 63.7877 11.6861C63.7256 11.5885 63.6945 11.4466 63.6945 11.2603C63.6945 11.1095 63.7034 10.972 63.7211 10.8479C63.7477 10.7237 63.7743 10.6261 63.801 10.5551C64.2445 10.6172 64.6969 10.666 65.1581 10.7015C65.6283 10.7281 66.094 10.7414 66.5552 10.7414C67.1318 10.7414 67.6995 10.7192 68.2583 10.6749C68.826 10.6217 69.3582 10.5463 69.855 10.4487C69.7929 10.8745 69.6199 11.1805 69.3361 11.3668C69.0611 11.5531 68.7329 11.6772 68.3515 11.7393C68.041 11.7926 67.6684 11.8325 67.2338 11.8591C66.7991 11.8857 66.3556 11.9079 65.9032 11.9256C65.4508 11.9345 65.0428 11.9389 64.6791 11.9389ZM71.8313 21.2262C71.4321 21.2262 71.1305 21.1375 70.9265 20.9601C70.7225 20.7827 70.6205 20.49 70.6205 20.0819C70.6205 19.7626 70.6471 19.359 70.7003 18.8711C70.7624 18.3832 70.8378 17.8421 70.9265 17.2478C71.0152 16.6446 71.1039 16.0149 71.1926 15.3584C71.2813 14.702 71.3567 14.0501 71.4188 13.4025C71.4809 12.7461 71.5119 12.1208 71.5119 11.5264L72.8425 11.4599C72.8602 11.5309 72.8691 11.6063 72.8691 11.6861C72.878 11.7571 72.8824 11.8325 72.8824 11.9123C72.8824 12.276 72.8425 12.7417 72.7627 13.3094C72.6917 13.8771 72.603 14.5158 72.4966 15.2254C72.399 15.9261 72.3103 16.6757 72.2304 17.474C72.1595 18.2635 72.124 19.0707 72.124 19.8956C72.124 20.0997 72.1284 20.3125 72.1373 20.5343C72.1462 20.7472 72.1684 20.969 72.2038 21.1996C72.1151 21.2085 72.0442 21.2129 71.9909 21.2129C71.9377 21.2218 71.8845 21.2262 71.8313 21.2262ZM70.3677 16.8886C70.3588 16.8265 70.3499 16.7644 70.3411 16.7023C70.3411 16.6313 70.3411 16.5648 70.3411 16.5027C70.3411 16.1923 70.4165 15.9616 70.5672 15.8108C70.718 15.6512 70.9176 15.5492 71.166 15.5048C71.4144 15.4516 71.6894 15.425 71.9909 15.425C72.1329 15.425 72.3058 15.4294 72.5099 15.4383C72.7227 15.4383 72.9356 15.4427 73.1485 15.4516C73.3614 15.4605 73.5344 15.4649 73.6674 15.4649C73.9779 15.4649 74.2795 15.4427 74.5722 15.3984C74.8738 15.3451 75.1266 15.2387 75.3306 15.079C75.3395 15.1322 75.3439 15.1899 75.3439 15.252C75.3528 15.3052 75.3572 15.3629 75.3572 15.425C75.3572 15.8153 75.2819 16.0902 75.1311 16.2499C74.9803 16.4007 74.7762 16.4761 74.519 16.4761C74.2972 16.4761 74.0888 16.4761 73.8936 16.4761C73.6985 16.4672 73.5122 16.4628 73.3348 16.4628C73.051 16.4628 72.7405 16.4717 72.4034 16.4894C72.0752 16.4983 71.7381 16.5338 71.3922 16.5959C71.0462 16.6491 70.7047 16.7467 70.3677 16.8886ZM71.5918 11.9389C71.3434 11.9389 71.1483 11.9212 71.0063 11.8857C70.8644 11.8502 70.7624 11.7837 70.7003 11.6861C70.6382 11.5885 70.6072 11.4466 70.6072 11.2603C70.6072 11.1095 70.616 10.972 70.6338 10.8479C70.6604 10.7237 70.687 10.6261 70.7136 10.5551C71.1571 10.6172 71.6095 10.666 72.0708 10.7015C72.5409 10.7281 73.0066 10.7414 73.4679 10.7414C74.0444 10.7414 74.6121 10.7192 75.171 10.6749C75.7387 10.6217 76.2709 10.5463 76.7676 10.4487C76.7055 10.8745 76.5326 11.1805 76.2487 11.3668C75.9737 11.5531 75.6455 11.6772 75.2641 11.7393C74.9536 11.7926 74.5811 11.8325 74.1464 11.8591C73.7118 11.8857 73.2683 11.9079 72.8159 11.9256C72.3635 11.9345 71.9555 11.9389 71.5918 11.9389Z" fill="white"/>
    </g>
    <defs>
        <filter id="filter0_d_3001_3750" x="0.338889" y="0.669445" width="100.186" height="36.3222" filterUnits="userSpaceOnUse" color-interpolation-filters="sRGB">
            <feFlood flood-opacity="0" result="BackgroundImageFix"/>
            <feColorMatrix in="SourceAlpha" type="matrix" values="0 0 0 0 0 0 0 0 0 0 0 0 0 0 0 0 0 0 127 0" result="hardAlpha"/>
            <feOffset dy="1.33056"/>
            <feGaussianBlur stdDeviation="1.33056"/>
            <feColorMatrix type="matrix" values="0 0 0 0 0 0 0 0 0 0 0 0 0 0 0 0 0 0 0.1 0"/>
            <feBlend mode="normal" in2="BackgroundImageFix" result="effect1_dropShadow_3001_3750"/>
            <feBlend mode="normal" in="SourceGraphic" in2="effect1_dropShadow_3001_3750" result="shape"/>
        </filter>
        <linearGradient id="paint0_linear_3001_3750" x1="89.1209" y1="2.00002" x2="11.7033" y2="61.0626" gradientUnits="userSpaceOnUse">
            <stop stop-color="#FF9970"/>
            <stop offset="0.989583" stop-color="#EB5162"/>
        </linearGradient>
    </defs>
</svg>
