<svg width="101" height="37" viewBox="0 0 101 37" fill="none"
    xmlns="http://www.w3.org/2000/svg">
    <g filter="url(#filter0_d_3001_3744)">
        <path d="M7.32557 29.2158H3L7.32557 32.8205V29.2158Z" fill="#C1555D"/>
        <path d="M3 8.4731C3 4.79887 5.97855 1.82031 9.65278 1.82031H89.3994C90.3595 1.82031 91.2451 2.33746 91.717 3.17359L97.0043 12.5431C98.1784 14.6235 98.1469 17.1737 96.9218 19.2245L91.7277 27.9192C91.2474 28.7233 90.3798 29.2156 89.4432 29.2156H3V8.4731Z" fill="url(#paint0_linear_3001_3744)"/>
        <path d="M24.0212 19.8203L21.7726 16.627C23.0233 16.1879 23.8482 15.1235 23.8482 13.7663C23.8482 11.9567 22.3846 10.6794 20.4021 10.6794H16.2907V19.8203H18.2466V16.8532H19.6969L21.7859 19.8203H24.0212ZM18.2466 12.4756H20.1892C21.1605 12.4756 21.8258 12.9813 21.8258 13.7663C21.8258 14.5513 21.1605 15.0569 20.1892 15.0569H18.2466V12.4756ZM32.3469 12.449V10.6794H25.3083V19.8203H32.3469V18.0507H27.2775V16.0415H31.8679V14.2719H27.2775V12.449H32.3469ZM37.2916 19.98C39.527 19.98 40.8442 18.8224 40.8442 17.0794C40.8442 15.3896 39.5403 14.8041 37.571 14.365C36.1606 14.0457 35.6151 13.8328 35.6151 13.1675C35.6151 12.622 36.1207 12.1829 36.959 12.1829C37.8371 12.1829 38.7552 12.5422 39.5669 13.1941L40.5914 11.7838C39.66 10.9854 38.5024 10.5197 37.0122 10.5197C35.0164 10.5197 33.6326 11.6773 33.6326 13.3671C33.6326 15.1368 35.0031 15.6823 36.9324 16.1214C38.3295 16.4407 38.8617 16.6403 38.8617 17.2923C38.8617 17.8644 38.3561 18.3168 37.3715 18.3168C36.2139 18.3168 35.2293 17.8644 34.3644 17.1193L33.2334 18.4631C34.2979 19.4478 35.7083 19.98 37.2916 19.98ZM46.7494 19.98C48.1332 19.98 49.4105 19.3812 50.302 18.4498L48.8783 17.1725C48.346 17.7846 47.5876 18.197 46.7494 18.197C45.2192 18.197 43.9153 16.8399 43.9153 15.2432C43.9153 13.6598 45.2192 12.3027 46.7494 12.3027C47.5876 12.3027 48.346 12.7151 48.8783 13.3272L50.302 12.0499C49.4105 11.1052 48.1332 10.5197 46.7494 10.5197C44.1282 10.5197 41.8928 12.6752 41.8928 15.2432C41.8928 17.8112 44.1282 19.98 46.7494 19.98ZM55.6413 19.98C58.0629 19.98 59.7794 18.2769 59.7794 15.8686V10.6794H57.8101V15.7887C57.8101 17.1991 56.9054 18.197 55.6413 18.197C54.364 18.197 53.4592 17.1991 53.4592 15.7887V10.6794H51.5033V15.8686C51.5033 18.2769 53.2064 19.98 55.6413 19.98ZM68.5994 12.449V10.6794H61.5607V19.8203H68.5994V18.0507H63.53V16.0415H68.1204V14.2719H63.53V12.449H68.5994ZM70.1645 19.8203H73.4376C76.5112 19.8203 78.6933 17.9176 78.6933 15.2432C78.6933 12.5688 76.5112 10.6794 73.4376 10.6794H70.1645V19.8203ZM72.1204 18.0374V12.4623H73.6904C75.4335 12.4623 76.6709 13.6199 76.6709 15.2432C76.6709 16.8798 75.4335 18.0374 73.6904 18.0374H72.1204Z" fill="white"/>
    </g>
    <defs>
        <filter id="filter0_d_3001_3744" x="0.338889" y="0.489757" width="100.186" height="36.3222" filterUnits="userSpaceOnUse" color-interpolation-filters="sRGB">
            <feFlood flood-opacity="0" result="BackgroundImageFix"/>
            <feColorMatrix in="SourceAlpha" type="matrix" values="0 0 0 0 0 0 0 0 0 0 0 0 0 0 0 0 0 0 127 0" result="hardAlpha"/>
            <feOffset dy="1.33056"/>
            <feGaussianBlur stdDeviation="1.33056"/>
            <feColorMatrix type="matrix" values="0 0 0 0 0 0 0 0 0 0 0 0 0 0 0 0 0 0 0.1 0"/>
            <feBlend mode="normal" in2="BackgroundImageFix" result="effect1_dropShadow_3001_3744"/>
            <feBlend mode="normal" in="SourceGraphic" in2="effect1_dropShadow_3001_3744" result="shape"/>
        </filter>
        <linearGradient id="paint0_linear_3001_3744" x1="89.1209" y1="1.82033" x2="11.7033" y2="60.883" gradientUnits="userSpaceOnUse">
            <stop stop-color="#FF9970"/>
            <stop offset="0.989583" stop-color="#EB5162"/>
        </linearGradient>
    </defs>
</svg>
