<svg width="101" height="37" viewBox="0 0 101 37" fill="none"
    xmlns="http://www.w3.org/2000/svg">
    <g filter="url(#filter0_d_3001_3778)">
        <path d="M7.32557 29.3955H3L7.32557 33.0002V29.3955Z" fill="#C1555D"/>
        <path d="M3 8.65278C3 4.97856 5.97855 2 9.65278 2H89.3994C90.3595 2 91.2451 2.51715 91.717 3.35327L97.0043 12.7228C98.1784 14.8032 98.1469 17.3534 96.9218 19.4042L91.7277 28.0989C91.2474 28.9029 90.3798 29.3953 89.4432 29.3953H3V8.65278Z" fill="url(#paint0_linear_3001_3778)"/>
        <path d="M19.2072 21.2794C19.2072 21.1375 19.2471 20.9956 19.3269 20.8536C19.4068 20.7117 19.5132 20.5787 19.6463 20.4545C19.7882 20.3303 19.9479 20.2194 20.1253 20.1218C20.3115 20.0243 20.5067 19.9489 20.7107 19.8956C20.9147 19.8424 21.1232 19.8158 21.3361 19.8158C21.3982 19.8158 21.4603 19.8158 21.5223 19.8158C21.5844 19.8158 21.6598 19.8202 21.7485 19.8291C21.8372 19.8291 21.957 19.8291 22.1078 19.8291C22.5158 19.8291 22.9194 19.8202 23.3186 19.8025C23.7266 19.7759 24.1081 19.7448 24.4629 19.7094C24.8266 19.665 25.1459 19.6207 25.4209 19.5763C25.6959 19.5231 25.9087 19.4654 26.0595 19.4033C26.0241 19.9799 25.8644 20.4323 25.5805 20.7605C25.3056 21.0887 24.9419 21.2528 24.4895 21.2528C24.3121 21.2528 24.0726 21.2306 23.771 21.1863C23.4694 21.1508 23.119 21.1109 22.7198 21.0665C22.3296 21.031 21.8949 21.0133 21.4159 21.0133C20.999 21.0133 20.5998 21.0355 20.2184 21.0798C19.8458 21.1242 19.5088 21.1907 19.2072 21.2794ZM21.9215 15.1322C21.6288 15.1322 21.3671 15.0746 21.1365 14.9593C20.9147 14.8351 20.7418 14.6666 20.6176 14.4537C20.4934 14.2319 20.4313 13.9835 20.4313 13.7086C20.4313 13.3005 20.551 12.9368 20.7905 12.6175C21.0389 12.2893 21.3716 12.0321 21.7885 11.8458C22.2054 11.6506 22.6711 11.5531 23.1855 11.5531C23.771 11.5531 24.281 11.6551 24.7157 11.8591C25.1592 12.0631 25.5007 12.3514 25.7402 12.7239C25.9886 13.0965 26.1128 13.5311 26.1128 14.0279C26.1128 14.5512 25.9841 15.0968 25.7269 15.6645C25.4785 16.2233 25.1148 16.7866 24.6358 17.3543C24.1568 17.9131 23.5803 18.4586 22.9061 18.9909C22.2408 19.5231 21.4913 20.0198 20.6575 20.4811L19.8059 20.4545C20.418 20.0376 20.9768 19.6162 21.4824 19.1904C21.988 18.7647 22.436 18.3433 22.8263 17.9264C23.2166 17.5006 23.5404 17.0793 23.7976 16.6624C24.0637 16.2455 24.2633 15.8374 24.3963 15.4383C24.5383 15.0302 24.6092 14.6399 24.6092 14.2674C24.6092 13.7263 24.4762 13.2961 24.2101 12.9767C23.944 12.6574 23.5891 12.4977 23.1456 12.4977C22.7553 12.4977 22.436 12.6219 22.1876 12.8703C21.9481 13.1187 21.8284 13.438 21.8284 13.8283C21.8284 14.0501 21.8683 14.2674 21.9481 14.4803C22.0368 14.6932 22.1654 14.8972 22.334 15.0923C22.2719 15.1012 22.2054 15.1101 22.1344 15.1189C22.0634 15.1278 21.9925 15.1322 21.9215 15.1322ZM31.7056 12.5909C31.3419 12.5909 31.0004 12.7195 30.681 12.9767C30.3706 13.234 30.0956 13.5799 29.8561 14.0146C29.6166 14.4404 29.4303 14.9149 29.2973 15.4383C29.1642 15.9616 29.0977 16.4894 29.0977 17.0216C29.0977 17.6248 29.1598 18.1837 29.284 18.6981C29.417 19.2037 29.6166 19.6118 29.8827 19.9223C30.1577 20.2327 30.5036 20.3879 30.9205 20.3879C31.302 20.3879 31.6346 20.2638 31.9185 20.0154C32.2112 19.7581 32.4551 19.4166 32.6503 18.9909C32.8543 18.5651 33.0051 18.0905 33.1027 17.5672C33.2091 17.0349 33.2623 16.4939 33.2623 15.9439C33.2623 15.1101 33.1869 14.4492 33.0361 13.9614C32.8942 13.4735 32.7035 13.1231 32.464 12.9102C32.2334 12.6973 31.9805 12.5909 31.7056 12.5909ZM31.1467 12.1119C31.3951 11.9966 31.6257 11.9123 31.8386 11.8591C32.0604 11.8059 32.2688 11.7792 32.464 11.7792C32.9607 11.7792 33.3732 11.9389 33.7014 12.2583C34.0296 12.5687 34.2735 12.9901 34.4332 13.5223C34.6017 14.0456 34.686 14.6355 34.686 15.2919C34.686 15.8419 34.6372 16.4051 34.5397 16.9817C34.4421 17.5494 34.2868 18.0905 34.074 18.605C33.8699 19.1195 33.6083 19.5807 33.2889 19.9888C32.9696 20.3968 32.5882 20.7206 32.1447 20.9601C31.7011 21.1907 31.1955 21.306 30.6278 21.306C30.273 21.306 29.9226 21.2218 29.5767 21.0532C29.2307 20.8847 28.9158 20.6274 28.632 20.2815C28.357 19.9267 28.1352 19.4787 27.9667 18.9376C27.7982 18.3877 27.7139 17.7401 27.7139 16.995C27.7139 16.0902 27.8425 15.2609 28.0998 14.5069C28.357 13.7529 28.7163 13.1187 29.1775 12.6042C29.6388 12.0808 30.1799 11.7305 30.8008 11.5531C31.0137 11.5531 31.129 11.7393 31.1467 12.1119ZM38.2992 12.2716C38.042 12.2716 37.8025 12.3913 37.5807 12.6308C37.3589 12.8614 37.1771 13.1719 37.0352 13.5622C36.9021 13.9436 36.8356 14.3561 36.8356 14.7996C36.8356 15.3052 36.9243 15.7133 37.1017 16.0237C37.288 16.3253 37.5319 16.4761 37.8335 16.4761C38.0907 16.4761 38.3169 16.3697 38.5121 16.1568C38.7072 15.935 38.8625 15.6334 38.9778 15.252C39.0931 14.8706 39.1508 14.4404 39.1508 13.9614C39.1508 13.438 39.0754 13.0255 38.9246 12.7239C38.7738 12.4224 38.5653 12.2716 38.2992 12.2716ZM37.9799 11.8724C38.2992 11.7482 38.5697 11.6861 38.7915 11.6861C39.2262 11.6861 39.5632 11.868 39.8027 12.2316C40.0511 12.5953 40.1753 13.0965 40.1753 13.7352C40.1753 14.365 40.0688 14.9371 39.8559 15.4516C39.6431 15.9661 39.3548 16.3741 38.9911 16.6757C38.6274 16.9684 38.2149 17.1148 37.7537 17.1148C37.1682 17.1148 36.7025 16.893 36.3566 16.4495C36.0106 16.006 35.8377 15.4072 35.8377 14.6532C35.8377 14.1388 35.9175 13.6686 36.0772 13.2429C36.2368 12.8082 36.4586 12.4445 36.7424 12.1518C37.0352 11.8591 37.3722 11.6595 37.7537 11.5531L37.9799 11.8724ZM42.5304 10.7813C42.6723 10.9055 42.7876 11.0962 42.8763 11.3535C42.9739 11.6107 43.0227 11.8768 43.0227 12.1518C43.0227 12.3647 42.9606 12.684 42.8364 13.1098C42.7211 13.5267 42.5614 14.019 42.3574 14.5867C42.1622 15.1456 41.9494 15.7532 41.7187 16.4096C41.497 17.0571 41.2752 17.718 41.0534 18.3921C40.8317 19.0574 40.6365 19.7094 40.468 20.348C40.2995 20.9778 40.1797 21.5588 40.1088 22.0911C39.8515 22.0556 39.6342 21.9136 39.4568 21.6653C39.2882 21.4258 39.204 21.1419 39.204 20.8137C39.204 20.5742 39.2705 20.2283 39.4036 19.7759C39.5455 19.3235 39.7273 18.8001 39.9491 18.2058C40.1797 17.6115 40.4237 16.9817 40.6809 16.3164C40.947 15.6512 41.2042 14.9815 41.4526 14.3073C41.7099 13.6332 41.9316 12.9945 42.1179 12.3913C42.313 11.7881 42.4505 11.2515 42.5304 10.7813ZM45.0451 16.4761C44.7879 16.4761 44.5484 16.5959 44.3266 16.8354C44.1049 17.066 43.923 17.3765 43.7811 17.7667C43.648 18.1482 43.5815 18.5606 43.5815 19.0042C43.5815 19.5098 43.6702 19.9178 43.8476 20.2283C44.0339 20.5299 44.2778 20.6807 44.5794 20.6807C44.8367 20.6807 45.0629 20.5742 45.258 20.3613C45.4532 20.1396 45.6084 19.838 45.7237 19.4566C45.839 19.0751 45.8967 18.6449 45.8967 18.1659C45.8967 17.6426 45.8213 17.2301 45.6705 16.9285C45.5197 16.6269 45.3112 16.4761 45.0451 16.4761ZM44.7258 16.0769C45.0451 15.9528 45.3157 15.8907 45.5374 15.8907C45.9721 15.8907 46.3091 16.0725 46.5486 16.4362C46.797 16.7999 46.9212 17.3011 46.9212 17.9397C46.9212 18.5695 46.8148 19.1417 46.6019 19.6561C46.389 20.1706 46.1007 20.5787 45.737 20.8802C45.3733 21.173 44.9608 21.3193 44.4996 21.3193C43.9141 21.3193 43.4484 21.0976 43.1025 20.6541C42.7566 20.2105 42.5836 19.6118 42.5836 18.8578C42.5836 18.3433 42.6634 17.8732 42.8231 17.4474C42.9828 17.0128 43.2045 16.6491 43.4884 16.3564C43.7811 16.0636 44.1182 15.8641 44.4996 15.7576L44.7258 16.0769ZM56.4453 21.3326C55.7534 21.3326 55.1591 21.173 54.6623 20.8536C54.1745 20.5343 53.7709 20.113 53.4515 19.5896C53.1411 19.0574 52.9104 18.4764 52.7596 17.8466C52.6088 17.2079 52.5334 16.5781 52.5334 15.9572C52.5334 15.221 52.6221 14.5291 52.7996 13.8815C52.9858 13.234 53.2431 12.6485 53.5713 12.1252C53.8995 11.6018 54.2853 11.1583 54.7289 10.7946C55.1812 10.431 55.678 10.1648 56.2191 9.99631C56.2812 10.0052 56.3344 10.0318 56.3787 10.0761C56.432 10.1205 56.463 10.1648 56.4719 10.2092C56.1614 10.4043 55.8598 10.6261 55.5671 10.8745C55.2833 11.1228 55.026 11.4244 54.7954 11.7792C54.5736 12.1252 54.3918 12.5554 54.2499 13.0699L54.3563 13.0965C54.649 12.4844 55.0127 11.9744 55.4474 11.5664C55.882 11.1495 56.3477 10.8346 56.8444 10.6217C57.3412 10.4088 57.8246 10.3023 58.2947 10.3023C58.8624 10.3023 59.3858 10.4576 59.8648 10.768C60.3438 11.0785 60.7297 11.5531 61.0224 12.1917C61.324 12.8304 61.4748 13.642 61.4748 14.6266C61.4748 15.2476 61.4127 15.8774 61.2885 16.516C61.1732 17.1547 60.9913 17.7623 60.743 18.3389C60.4946 18.9155 60.1708 19.4299 59.7717 19.8823C59.3814 20.3259 58.9112 20.6807 58.3613 20.9468C57.8113 21.204 57.1726 21.3326 56.4453 21.3326ZM56.6182 20.5343C57.1505 20.5343 57.625 20.3746 58.0419 20.0553C58.4588 19.736 58.8092 19.3102 59.0931 18.778C59.3858 18.2369 59.6031 17.6426 59.7451 16.995C59.8958 16.3386 59.9712 15.6778 59.9712 15.0125C59.9712 14.09 59.8737 13.3582 59.6785 12.8171C59.4834 12.2671 59.2173 11.8724 58.8802 11.6329C58.552 11.3934 58.1794 11.2736 57.7625 11.2736C57.2214 11.2736 56.7247 11.4333 56.2723 11.7526C55.8288 12.0631 55.4429 12.48 55.1147 13.0034C54.7865 13.5178 54.5337 14.09 54.3563 14.7198C54.1789 15.3496 54.0902 15.9794 54.0902 16.6092C54.0902 17.1414 54.139 17.647 54.2366 18.126C54.3341 18.5961 54.4849 19.013 54.6889 19.3767C54.893 19.7315 55.1546 20.0154 55.474 20.2283C55.7933 20.4323 56.1747 20.5343 56.6182 20.5343ZM64.9576 21.2262C64.5584 21.2262 64.2568 21.1375 64.0528 20.9601C63.8488 20.7827 63.7468 20.49 63.7468 20.0819C63.7468 19.7626 63.7734 19.359 63.8266 18.8711C63.8887 18.3832 63.9641 17.8421 64.0528 17.2478C64.1415 16.6446 64.2302 16.0149 64.3189 15.3584C64.4076 14.702 64.483 14.0501 64.5451 13.4025C64.6072 12.7461 64.6383 12.1208 64.6383 11.5264L65.9688 11.4599C65.9866 11.5309 65.9954 11.6063 65.9954 11.6861C66.0043 11.7571 66.0087 11.8325 66.0087 11.9123C66.0087 12.276 65.9688 12.7417 65.889 13.3094C65.818 13.8771 65.7293 14.5158 65.6229 15.2254C65.5253 15.9261 65.4366 16.6757 65.3568 17.474C65.2858 18.2635 65.2503 19.0707 65.2503 19.8956C65.2503 20.0997 65.2548 20.3125 65.2636 20.5343C65.2725 20.7472 65.2947 20.969 65.3302 21.1996C65.2415 21.2085 65.1705 21.2129 65.1173 21.2129C65.064 21.2218 65.0108 21.2262 64.9576 21.2262ZM63.494 16.8886C63.4851 16.8265 63.4763 16.7644 63.4674 16.7023C63.4674 16.6313 63.4674 16.5648 63.4674 16.5027C63.4674 16.1923 63.5428 15.9616 63.6936 15.8108C63.8444 15.6512 64.044 15.5492 64.2923 15.5048C64.5407 15.4516 64.8157 15.425 65.1173 15.425C65.2592 15.425 65.4322 15.4294 65.6362 15.4383C65.8491 15.4383 66.062 15.4427 66.2749 15.4516C66.4877 15.4605 66.6607 15.4649 66.7938 15.4649C67.1042 15.4649 67.4058 15.4427 67.6985 15.3984C68.0001 15.3451 68.2529 15.2387 68.457 15.079C68.4658 15.1322 68.4703 15.1899 68.4703 15.252C68.4791 15.3052 68.4836 15.3629 68.4836 15.425C68.4836 15.8153 68.4082 16.0902 68.2574 16.2499C68.1066 16.4007 67.9026 16.4761 67.6453 16.4761C67.4236 16.4761 67.2151 16.4761 67.02 16.4761C66.8248 16.4672 66.6385 16.4628 66.4611 16.4628C66.1773 16.4628 65.8668 16.4717 65.5297 16.4894C65.2015 16.4983 64.8645 16.5338 64.5185 16.5959C64.1726 16.6491 63.8311 16.7467 63.494 16.8886ZM64.7181 11.9389C64.4697 11.9389 64.2746 11.9212 64.1327 11.8857C63.9907 11.8502 63.8887 11.7837 63.8266 11.6861C63.7645 11.5885 63.7335 11.4466 63.7335 11.2603C63.7335 11.1095 63.7424 10.972 63.7601 10.8479C63.7867 10.7237 63.8133 10.6261 63.8399 10.5551C64.2835 10.6172 64.7358 10.666 65.1971 10.7015C65.6672 10.7281 66.1329 10.7414 66.5942 10.7414C67.1708 10.7414 67.7385 10.7192 68.2973 10.6749C68.865 10.6217 69.3972 10.5463 69.894 10.4487C69.8319 10.8745 69.6589 11.1805 69.375 11.3668C69.1001 11.5531 68.7719 11.6772 68.3904 11.7393C68.08 11.7926 67.7074 11.8325 67.2728 11.8591C66.8381 11.8857 66.3946 11.9079 65.9422 11.9256C65.4898 11.9345 65.0818 11.9389 64.7181 11.9389ZM71.8703 21.2262C71.4711 21.2262 71.1695 21.1375 70.9655 20.9601C70.7615 20.7827 70.6595 20.49 70.6595 20.0819C70.6595 19.7626 70.6861 19.359 70.7393 18.8711C70.8014 18.3832 70.8768 17.8421 70.9655 17.2478C71.0542 16.6446 71.1429 16.0149 71.2316 15.3584C71.3203 14.702 71.3957 14.0501 71.4578 13.4025C71.5199 12.7461 71.5509 12.1208 71.5509 11.5264L72.8815 11.4599C72.8992 11.5309 72.9081 11.6063 72.9081 11.6861C72.917 11.7571 72.9214 11.8325 72.9214 11.9123C72.9214 12.276 72.8815 12.7417 72.8016 13.3094C72.7307 13.8771 72.642 14.5158 72.5355 15.2254C72.438 15.9261 72.3493 16.6757 72.2694 17.474C72.1985 18.2635 72.163 19.0707 72.163 19.8956C72.163 20.0997 72.1674 20.3125 72.1763 20.5343C72.1852 20.7472 72.2073 20.969 72.2428 21.1996C72.1541 21.2085 72.0831 21.2129 72.0299 21.2129C71.9767 21.2218 71.9235 21.2262 71.8703 21.2262ZM70.4066 16.8886C70.3978 16.8265 70.3889 16.7644 70.38 16.7023C70.38 16.6313 70.38 16.5648 70.38 16.5027C70.38 16.1923 70.4554 15.9616 70.6062 15.8108C70.757 15.6512 70.9566 15.5492 71.205 15.5048C71.4534 15.4516 71.7283 15.425 72.0299 15.425C72.1719 15.425 72.3448 15.4294 72.5488 15.4383C72.7617 15.4383 72.9746 15.4427 73.1875 15.4516C73.4004 15.4605 73.5734 15.4649 73.7064 15.4649C74.0169 15.4649 74.3185 15.4427 74.6112 15.3984C74.9128 15.3451 75.1656 15.2387 75.3696 15.079C75.3785 15.1322 75.3829 15.1899 75.3829 15.252C75.3918 15.3052 75.3962 15.3629 75.3962 15.425C75.3962 15.8153 75.3208 16.0902 75.17 16.2499C75.0192 16.4007 74.8152 16.4761 74.558 16.4761C74.3362 16.4761 74.1278 16.4761 73.9326 16.4761C73.7375 16.4672 73.5512 16.4628 73.3738 16.4628C73.0899 16.4628 72.7795 16.4717 72.4424 16.4894C72.1142 16.4983 71.7771 16.5338 71.4312 16.5959C71.0852 16.6491 70.7437 16.7467 70.4066 16.8886ZM71.6308 11.9389C71.3824 11.9389 71.1872 11.9212 71.0453 11.8857C70.9034 11.8502 70.8014 11.7837 70.7393 11.6861C70.6772 11.5885 70.6461 11.4466 70.6461 11.2603C70.6461 11.1095 70.655 10.972 70.6728 10.8479C70.6994 10.7237 70.726 10.6261 70.7526 10.5551C71.1961 10.6172 71.6485 10.666 72.1098 10.7015C72.5799 10.7281 73.0456 10.7414 73.5068 10.7414C74.0834 10.7414 74.6511 10.7192 75.21 10.6749C75.7777 10.6217 76.3099 10.5463 76.8066 10.4487C76.7445 10.8745 76.5716 11.1805 76.2877 11.3668C76.0127 11.5531 75.6845 11.6772 75.3031 11.7393C74.9926 11.7926 74.6201 11.8325 74.1854 11.8591C73.7508 11.8857 73.3073 11.9079 72.8549 11.9256C72.4025 11.9345 71.9944 11.9389 71.6308 11.9389Z" fill="white"/>
    </g>
    <defs>
        <filter id="filter0_d_3001_3778" x="0.338889" y="0.669445" width="100.186" height="36.3222" filterUnits="userSpaceOnUse" color-interpolation-filters="sRGB">
            <feFlood flood-opacity="0" result="BackgroundImageFix"/>
            <feColorMatrix in="SourceAlpha" type="matrix" values="0 0 0 0 0 0 0 0 0 0 0 0 0 0 0 0 0 0 127 0" result="hardAlpha"/>
            <feOffset dy="1.33056"/>
            <feGaussianBlur stdDeviation="1.33056"/>
            <feColorMatrix type="matrix" values="0 0 0 0 0 0 0 0 0 0 0 0 0 0 0 0 0 0 0.1 0"/>
            <feBlend mode="normal" in2="BackgroundImageFix" result="effect1_dropShadow_3001_3778"/>
            <feBlend mode="normal" in="SourceGraphic" in2="effect1_dropShadow_3001_3778" result="shape"/>
        </filter>
        <linearGradient id="paint0_linear_3001_3778" x1="89.1209" y1="2.00002" x2="11.7033" y2="61.0626" gradientUnits="userSpaceOnUse">
            <stop stop-color="#FF9970"/>
            <stop offset="0.989583" stop-color="#EB5162"/>
        </linearGradient>
    </defs>
</svg>
