<svg width="148" height="72" viewBox="0 0 148 72" fill="none"
    xmlns="http://www.w3.org/2000/svg">
    <rect width="148" height="72" rx="8" fill="white"/>
    <g clip-path="url(#clip0_3114_5454)">
        <path opacity="0.3" d="M29.375 33.75C30.6176 33.75 31.625 32.7426 31.625 31.5C31.625 30.2574 30.6176 29.25 29.375 29.25C28.1324 29.25 27.125 30.2574 27.125 31.5C27.125 32.7426 28.1324 33.75 29.375 33.75Z" fill="#C0C0C0"/>
        <path opacity="0.3" d="M33.875 47.7225C33.875 43.4925 40.58 41.6475 44 41.6475C45.98 41.6475 49.04 42.255 51.29 43.605C52.37 41.31 52.9775 38.745 52.9775 36.0225C52.9775 26.1 44.9 18.0225 34.9775 18.0225C25.055 18.0225 16.9775 26.1 16.9775 36.0225C16.9775 38.79 17.63 41.4 18.7325 43.74C21.7475 41.535 26.45 40.5225 29.375 40.5225C30.365 40.5225 31.5575 40.635 32.8175 40.8825C31.4 42.165 30.4325 43.6275 29.8925 45.0675C29.7125 45.0675 29.555 45.045 29.375 45.045C26.27 45.045 22.67 46.3275 21.14 47.5425C24.2225 51.255 28.7675 53.685 33.875 53.9775V47.7225ZM44 29.25C46.4975 29.25 48.5 31.2525 48.5 33.75C48.5 36.2475 46.4975 38.25 44 38.25C41.5025 38.25 39.5 36.2475 39.5 33.75C39.4775 31.2525 41.5025 29.25 44 29.25ZM29.375 38.25C25.6625 38.25 22.625 35.2125 22.625 31.5C22.625 27.7875 25.6625 24.75 29.375 24.75C33.0875 24.75 36.125 27.7875 36.125 31.5C36.125 35.2125 33.0875 38.25 29.375 38.25Z" fill="#C0C0C0"/>
        <path d="M36.125 31.5C36.125 27.7875 33.0875 24.75 29.375 24.75C25.6625 24.75 22.625 27.7875 22.625 31.5C22.625 35.2125 25.6625 38.25 29.375 38.25C33.0875 38.25 36.125 35.2125 36.125 31.5ZM29.375 33.75C28.1375 33.75 27.125 32.7375 27.125 31.5C27.125 30.2625 28.1375 29.25 29.375 29.25C30.6125 29.25 31.625 30.2625 31.625 31.5C31.625 32.7375 30.6125 33.75 29.375 33.75ZM44 38.25C46.4975 38.25 48.5 36.2475 48.5 33.75C48.5 31.2525 46.4975 29.25 44 29.25C41.5025 29.25 39.4775 31.2525 39.5 33.75C39.5 36.2475 41.5025 38.25 44 38.25ZM34.9775 13.5225C22.5575 13.5225 12.4775 23.6025 12.4775 36.0225C12.4775 48.4425 22.5575 58.5225 34.9775 58.5225C47.3975 58.5225 57.4775 48.4425 57.4775 36.0225C57.4775 23.6025 47.3975 13.5225 34.9775 13.5225ZM21.14 47.52C22.67 46.305 26.2475 45.0225 29.375 45.0225C29.5325 45.0225 29.7125 45.045 29.8925 45.045C30.4325 43.605 31.4 42.1425 32.8175 40.86C31.5575 40.635 30.365 40.5 29.375 40.5C26.45 40.5 21.7475 41.5125 18.7325 43.7175C17.6075 41.3775 16.9775 38.7675 16.9775 36C16.9775 26.0775 25.055 18 34.9775 18C44.9 18 52.9775 26.0775 52.9775 36C52.9775 38.7 52.37 41.265 51.29 43.5825C49.04 42.255 45.98 41.625 44 41.625C40.58 41.625 33.875 43.4475 33.875 47.7V53.955C28.7675 53.6625 24.2225 51.2325 21.14 47.52Z" fill="#C0C0C0"/>
    </g>
    <rect x="64" y="18" width="57" height="4" rx="2" fill="#C0C0C0"/>
    <rect x="64" y="30" width="36" height="4" rx="2" fill="#C0C0C0"/>
    <rect x="64" y="42" width="20" height="4" rx="2" fill="#C0C0C0"/>
    <rect x="92" y="42" width="20" height="4" rx="2" fill="#C0C0C0"/>
    <rect x="120" y="42" width="20" height="4" rx="2" fill="#C0C0C0"/>
    <defs>
        <clipPath id="clip0_3114_5454">
            <rect width="54" height="54" fill="white" transform="translate(8 9)"/>
        </clipPath>
    </defs>
</svg>
