<svg width="72" height="54" viewBox="0 0 72 54" fill="none"
    xmlns="http://www.w3.org/2000/svg">
    <rect width="72" height="54" rx="12" fill="#333333"/>
    <path d="M28.728 17.144C27.896 17.144 27.168 16.96 26.544 16.592C25.92 16.224 25.432 15.716 25.08 15.068C24.728 14.412 24.552 13.656 24.552 12.8C24.552 11.944 24.728 11.192 25.08 10.544C25.432 9.888 25.92 9.376 26.544 9.008C27.168 8.64 27.896 8.456 28.728 8.456C29.56 8.456 30.288 8.64 30.912 9.008C31.536 9.376 32.02 9.888 32.364 10.544C32.716 11.192 32.892 11.944 32.892 12.8C32.892 13.656 32.716 14.412 32.364 15.068C32.02 15.716 31.536 16.224 30.912 16.592C30.288 16.96 29.56 17.144 28.728 17.144ZM28.728 16.004C29.304 16.004 29.804 15.876 30.228 15.62C30.66 15.364 30.996 14.996 31.236 14.516C31.476 14.036 31.596 13.464 31.596 12.8C31.596 12.136 31.476 11.564 31.236 11.084C30.996 10.604 30.66 10.236 30.228 9.98C29.804 9.724 29.304 9.596 28.728 9.596C28.152 9.596 27.648 9.724 27.216 9.98C26.784 10.236 26.448 10.604 26.208 11.084C25.976 11.564 25.86 12.136 25.86 12.8C25.86 13.464 25.976 14.036 26.208 14.516C26.448 14.996 26.784 15.364 27.216 15.62C27.648 15.876 28.152 16.004 28.728 16.004ZM35.962 17V9.632H33.478V8.6H39.706V9.632H37.234V17H35.962ZM40.9564 17V8.6H43.8964C44.5524 8.6 45.0964 8.712 45.5284 8.936C45.9604 9.152 46.2804 9.452 46.4884 9.836C46.7044 10.212 46.8124 10.64 46.8124 11.12C46.8124 11.576 46.7084 11.996 46.5004 12.38C46.3004 12.756 45.9844 13.056 45.5524 13.28C45.1204 13.504 44.5684 13.616 43.8964 13.616H42.2284V17H40.9564ZM42.2284 12.572H43.8364C44.4364 12.572 44.8644 12.444 45.1204 12.188C45.3844 11.924 45.5164 11.568 45.5164 11.12C45.5164 10.656 45.3844 10.296 45.1204 10.04C44.8644 9.776 44.4364 9.644 43.8364 9.644H42.2284V12.572Z" fill="white"/>
    <path d="M22.048 43.4C21.3973 43.4 20.8213 43.2933 20.32 43.08C19.8293 42.8773 19.44 42.5947 19.152 42.232C18.8747 41.8587 18.736 41.432 18.736 40.952C18.736 40.5573 18.8213 40.2107 18.992 39.912C19.1627 39.6027 19.3973 39.3627 19.696 39.192C19.9947 39.0107 20.336 38.92 20.72 38.92C20.816 38.92 20.912 38.9253 21.008 38.936C21.1147 38.936 21.2107 38.9467 21.296 38.968C20.88 39.4373 20.672 39.9653 20.672 40.552C20.672 41.0427 20.8053 41.4373 21.072 41.736C21.3493 42.0347 21.7227 42.184 22.192 42.184C22.8 42.184 23.3013 41.9653 23.696 41.528C24.0907 41.08 24.288 40.52 24.288 39.848C24.288 39.272 24.16 38.7813 23.904 38.376C23.648 37.96 23.2853 37.64 22.816 37.416C22.3573 37.192 21.8133 37.08 21.184 37.08C20.9493 37.08 20.688 37.1013 20.4 37.144C20.1227 37.176 19.8293 37.224 19.52 37.288L20.448 31.928L21.424 32.232L21.776 32.648L21.216 36.088C21.3653 36.0667 21.5307 36.0507 21.712 36.04C21.904 36.0187 22.0853 36.008 22.256 36.008C23.088 36.008 23.8027 36.1467 24.4 36.424C25.008 36.7013 25.4773 37.096 25.808 37.608C26.1493 38.1093 26.32 38.7013 26.32 39.384C26.32 40.1307 26.128 40.8133 25.744 41.432C25.3707 42.04 24.864 42.52 24.224 42.872C23.584 43.224 22.8587 43.4 22.048 43.4ZM26.304 31.64C26.3467 31.7147 26.3787 31.8587 26.4 32.072C26.432 32.2747 26.448 32.4773 26.448 32.68C26.448 33.1067 26.3733 33.4213 26.224 33.624C26.0747 33.816 25.84 33.912 25.52 33.912C25.3813 33.912 25.1307 33.8907 24.768 33.848C24.4053 33.8053 23.9947 33.7467 23.536 33.672C23.0773 33.5973 22.6133 33.5173 22.144 33.432C21.6747 33.3467 21.2693 33.272 20.928 33.208C20.5653 33.1227 20.2933 32.968 20.112 32.744C19.9413 32.52 19.8347 32.1947 19.792 31.768C20.1227 31.8107 20.4747 31.848 20.848 31.88C21.232 31.9013 21.648 31.912 22.096 31.912C22.5227 31.912 22.9813 31.9013 23.472 31.88C23.9627 31.8587 24.4533 31.8267 24.944 31.784C25.4453 31.7413 25.8987 31.6933 26.304 31.64ZM29.5726 37.48C29.9993 37.224 30.4686 37.0267 30.9806 36.888C31.5033 36.7387 31.9993 36.664 32.4686 36.664C33.1086 36.664 33.6686 36.792 34.1486 37.048C34.6286 37.304 35.002 37.6613 35.2686 38.12C35.546 38.568 35.6846 39.096 35.6846 39.704C35.6846 40.2267 35.5833 40.712 35.3806 41.16C35.178 41.608 34.8953 41.9973 34.5326 42.328C34.17 42.6587 33.7486 42.92 33.2686 43.112C32.7886 43.304 32.2713 43.4 31.7166 43.4C30.9486 43.4 30.282 43.208 29.7166 42.824C29.1513 42.44 28.714 41.896 28.4046 41.192C28.0953 40.4773 27.9406 39.64 27.9406 38.68C27.9406 37.688 28.0633 36.7653 28.3086 35.912C28.5646 35.048 28.9166 34.3013 29.3646 33.672C29.8233 33.032 30.3566 32.536 30.9646 32.184C31.5833 31.8213 32.25 31.64 32.9646 31.64C33.5193 31.64 34.01 31.7413 34.4366 31.944C34.8633 32.136 35.1993 32.4027 35.4446 32.744C35.7006 33.0853 35.8286 33.4747 35.8286 33.912C35.8286 34.2213 35.7593 34.4987 35.6206 34.744C35.482 34.9787 35.2846 35.1653 35.0286 35.304C34.7833 35.432 34.49 35.496 34.1486 35.496C33.8606 35.496 33.61 35.4427 33.3966 35.336C33.546 35.2293 33.6686 35.0693 33.7646 34.856C33.8606 34.632 33.9086 34.3973 33.9086 34.152C33.9086 33.7787 33.7966 33.4747 33.5726 33.24C33.3593 33.0053 33.082 32.888 32.7406 32.888C32.346 32.888 31.9726 33.0533 31.6206 33.384C31.2793 33.704 30.9753 34.1467 30.7086 34.712C30.4526 35.2667 30.25 35.912 30.1006 36.648C29.9513 37.384 29.8766 38.1733 29.8766 39.016C29.8766 40.008 30.0313 40.776 30.3406 41.32C30.6606 41.864 31.1086 42.136 31.6846 42.136C32.0793 42.136 32.426 42.04 32.7246 41.848C33.034 41.6453 33.274 41.3733 33.4446 41.032C33.6153 40.68 33.7006 40.2853 33.7006 39.848C33.7006 39.2293 33.5193 38.7387 33.1566 38.376C32.8046 38.0133 32.3193 37.832 31.7006 37.832C31.402 37.832 31.0606 37.88 30.6766 37.976C30.3033 38.072 29.9406 38.2107 29.5886 38.392L29.5726 37.48ZM41.0521 37.4L41.3561 38.008C40.6948 38.4987 40.2095 38.9627 39.9001 39.4C39.5908 39.8267 39.4361 40.264 39.4361 40.712C39.4361 41.1813 39.5855 41.5653 39.8841 41.864C40.1828 42.152 40.5721 42.296 41.0521 42.296C41.4148 42.296 41.7508 42.2213 42.0601 42.072C42.3801 41.9227 42.6308 41.72 42.8121 41.464C43.0041 41.208 43.1001 40.9307 43.1001 40.632C43.1001 40.3013 42.9881 39.9973 42.7641 39.72C42.5401 39.432 42.2521 39.1493 41.9001 38.872C41.5481 38.5947 41.1748 38.312 40.7801 38.024C40.3855 37.736 40.0121 37.4267 39.6601 37.096C39.3081 36.7653 39.0201 36.3973 38.7961 35.992C38.5721 35.576 38.4601 35.1067 38.4601 34.584C38.4601 33.9973 38.6201 33.4853 38.9401 33.048C39.2601 32.6 39.7028 32.2533 40.2681 32.008C40.8441 31.7627 41.5161 31.64 42.2841 31.64C43.2548 31.64 44.0121 31.8533 44.5561 32.28C45.1108 32.696 45.3881 33.272 45.3881 34.008C45.3881 34.7547 45.1161 35.4427 44.5721 36.072C44.0388 36.6907 43.3295 37.1387 42.4441 37.416L41.8201 36.888C43.0361 36.0133 43.6441 35.1067 43.6441 34.168C43.6441 33.7413 43.5161 33.4 43.2601 33.144C43.0041 32.888 42.6521 32.76 42.2041 32.76C41.7135 32.76 41.2975 32.9093 40.9561 33.208C40.6255 33.5067 40.4601 33.8907 40.4601 34.36C40.4601 34.744 40.5721 35.096 40.7961 35.416C41.0201 35.7253 41.3081 36.024 41.6601 36.312C42.0121 36.6 42.3855 36.888 42.7801 37.176C43.1855 37.4533 43.5641 37.752 43.9161 38.072C44.2681 38.392 44.5561 38.7493 44.7801 39.144C45.0041 39.528 45.1161 39.9653 45.1161 40.456C45.1161 41.0427 44.9455 41.56 44.6041 42.008C44.2735 42.4453 43.8095 42.7867 43.2121 43.032C42.6148 43.2773 41.9215 43.4 41.1321 43.4C40.4175 43.4 39.7828 43.288 39.2281 43.064C38.6841 42.84 38.2575 42.5307 37.9481 42.136C37.6495 41.7413 37.5001 41.2827 37.5001 40.76C37.5001 40.2693 37.6441 39.8053 37.9321 39.368C38.2308 38.92 38.6468 38.5253 39.1801 38.184C39.7135 37.8427 40.3375 37.5813 41.0521 37.4ZM48.3825 40.744C48.3825 41.192 48.5158 41.5493 48.7825 41.816C49.0598 42.072 49.4332 42.2 49.9025 42.2C50.4785 42.2 50.9478 42.0027 51.3105 41.608C51.6732 41.2133 51.8545 40.7173 51.8545 40.12C51.8545 39.6613 51.7532 39.256 51.5505 38.904C51.3478 38.5413 51.0652 38.2533 50.7025 38.04C50.3398 37.816 49.9132 37.6933 49.4225 37.672L49.4545 37.256C49.5932 37.224 49.7425 37.1973 49.9025 37.176C50.0625 37.1547 50.2225 37.1387 50.3825 37.128C50.5425 37.1067 50.6918 37.096 50.8305 37.096C51.4385 37.096 51.9718 37.2187 52.4305 37.464C52.8998 37.6987 53.2625 38.0347 53.5185 38.472C53.7852 38.8987 53.9185 39.3893 53.9185 39.944C53.9185 40.616 53.7425 41.2133 53.3905 41.736C53.0385 42.2587 52.5478 42.6693 51.9185 42.968C51.2892 43.256 50.5745 43.4 49.7745 43.4C49.1238 43.4 48.5478 43.2987 48.0465 43.096C47.5558 42.8933 47.1718 42.6107 46.8945 42.248C46.6278 41.8853 46.4945 41.464 46.4945 40.984C46.4945 40.6107 46.5745 40.28 46.7345 39.992C46.9052 39.6933 47.1398 39.464 47.4385 39.304C47.7372 39.1333 48.0732 39.048 48.4465 39.048C48.6598 39.048 48.8998 39.08 49.1665 39.144C48.9212 39.3253 48.7292 39.5547 48.5905 39.832C48.4518 40.1093 48.3825 40.4133 48.3825 40.744ZM48.9265 37.192C49.5025 37.096 50.0092 36.9093 50.4465 36.632C50.8945 36.344 51.2412 36.0027 51.4865 35.608C51.7425 35.2027 51.8705 34.7707 51.8705 34.312C51.8705 33.8853 51.7478 33.5493 51.5025 33.304C51.2678 33.048 50.9425 32.92 50.5265 32.92C50.1212 32.92 49.8012 33.0373 49.5665 33.272C49.3318 33.496 49.2145 33.8107 49.2145 34.216C49.2145 34.472 49.2625 34.7227 49.3585 34.968C49.4652 35.2027 49.6198 35.4427 49.8225 35.688C49.7052 35.7093 49.5932 35.7307 49.4865 35.752C49.3905 35.7627 49.2945 35.768 49.1985 35.768C48.6758 35.768 48.2492 35.608 47.9185 35.288C47.5878 34.968 47.4225 34.5573 47.4225 34.056C47.4225 33.5867 47.5612 33.1707 47.8385 32.808C48.1158 32.4453 48.4892 32.1627 48.9585 31.96C49.4385 31.7467 49.9878 31.64 50.6065 31.64C51.2252 31.64 51.7692 31.7573 52.2385 31.992C52.7185 32.216 53.0918 32.5253 53.3585 32.92C53.6358 33.3147 53.7745 33.7733 53.7745 34.296C53.7745 34.9147 53.5772 35.4747 53.1825 35.976C52.7985 36.4667 52.2492 36.872 51.5345 37.192C50.8198 37.5013 49.9772 37.704 49.0065 37.8L48.9265 37.192Z" fill="white"/>
</svg>
