<svg width="24" height="25" viewBox="0 0 24 25" fill="none"
    xmlns="http://www.w3.org/2000/svg">
    <g clip-path="url(#clip0_3004_2940)">
        <path d="M17 3.57812H7C5.9 3.57812 5 4.47812 5 5.57812V20.313C5 20.4459 5.12718 20.5418 5.25494 20.5053L11.9451 18.5938C11.981 18.5836 12.019 18.5836 12.0549 18.5938L18.7451 20.5053C18.8728 20.5418 19 20.4459 19 20.313V5.57812C19 4.47812 18.1 3.57812 17 3.57812ZM18 19.3006C18 19.4372 17.8663 19.5335 17.7368 19.4904L12.0632 17.5992C12.0222 17.5855 11.9778 17.5855 11.9368 17.5992L6.26325 19.4904C6.13374 19.5335 6 19.4372 6 19.3006V5.57812C6 5.02584 6.44772 4.57812 7 4.57812H17C17.5523 4.57812 18 5.02584 18 5.57812V19.3006Z" fill="white"/>
        <path d="M10.1328 11.8281C9.83281 11.8281 9.55948 11.7615 9.31281 11.6281C9.07281 11.4881 8.88281 11.2948 8.74281 11.0481C8.60281 10.7948 8.53281 10.4948 8.53281 10.1481C8.53281 9.80146 8.60281 9.50479 8.74281 9.25812C8.88948 9.00479 9.08281 8.81146 9.32281 8.67812C9.56948 8.53812 9.84281 8.46812 10.1428 8.46812C10.4428 8.46812 10.7128 8.53812 10.9528 8.67812C11.1928 8.81146 11.3828 9.00479 11.5228 9.25812C11.6628 9.50479 11.7328 9.80146 11.7328 10.1481C11.7328 10.4948 11.6595 10.7948 11.5128 11.0481C11.3728 11.2948 11.1828 11.4881 10.9428 11.6281C10.7028 11.7615 10.4328 11.8281 10.1328 11.8281ZM9.51281 15.5781L13.5828 8.57812H14.4228L10.3528 15.5781H9.51281ZM10.1328 11.1781C10.3661 11.1781 10.5695 11.0915 10.7428 10.9181C10.9228 10.7448 11.0128 10.4881 11.0128 10.1481C11.0128 9.80146 10.9261 9.54146 10.7528 9.36812C10.5795 9.18812 10.3761 9.09812 10.1428 9.09812C9.90948 9.09812 9.69948 9.18812 9.51281 9.36812C9.33281 9.54146 9.24281 9.80146 9.24281 10.1481C9.24281 10.4881 9.33281 10.7448 9.51281 10.9181C9.69281 11.0915 9.89948 11.1781 10.1328 11.1781ZM13.8728 15.6981C13.5728 15.6981 13.2995 15.6315 13.0528 15.4981C12.8128 15.3581 12.6228 15.1648 12.4828 14.9181C12.3428 14.6648 12.2728 14.3648 12.2728 14.0181C12.2728 13.6715 12.3428 13.3748 12.4828 13.1281C12.6295 12.8748 12.8228 12.6815 13.0628 12.5481C13.3028 12.4081 13.5728 12.3381 13.8728 12.3381C14.1728 12.3381 14.4428 12.4081 14.6828 12.5481C14.9228 12.6815 15.1128 12.8748 15.2528 13.1281C15.3928 13.3748 15.4628 13.6715 15.4628 14.0181C15.4628 14.3648 15.3928 14.6648 15.2528 14.9181C15.1128 15.1648 14.9228 15.3581 14.6828 15.4981C14.4428 15.6315 14.1728 15.6981 13.8728 15.6981ZM13.8628 15.0481C14.1028 15.0481 14.3095 14.9615 14.4828 14.7881C14.6628 14.6148 14.7528 14.3581 14.7528 14.0181C14.7528 13.6715 14.6661 13.4115 14.4928 13.2381C14.3195 13.0648 14.1128 12.9781 13.8728 12.9781C13.6395 12.9781 13.4328 13.0648 13.2528 13.2381C13.0728 13.4115 12.9828 13.6715 12.9828 14.0181C12.9828 14.3581 13.0695 14.6148 13.2428 14.7881C13.4228 14.9615 13.6295 15.0481 13.8628 15.0481Z" fill="white"/>
    </g>
    <defs>
        <clipPath id="clip0_3004_2940">
            <rect width="24" height="24" fill="white" transform="translate(0 0.578125)"/>
        </clipPath>
    </defs>
</svg>
