<svg width="16" height="16" viewBox="0 0 16 16" fill="none"
    xmlns="http://www.w3.org/2000/svg">
    <g clip-path="url(#clip0_3005_4184)">
        <path opacity="0.3" d="M7.33366 2.66699H2.66699V7.33366L8.66699 13.3403L13.3337 8.66699L7.33366 2.66699ZM4.33366 5.33366C3.78033 5.33366 3.33366 4.88699 3.33366 4.33366C3.33366 3.78033 3.78033 3.33366 4.33366 3.33366C4.88699 3.33366 5.33366 3.78033 5.33366 4.33366C5.33366 4.88699 4.88699 5.33366 4.33366 5.33366Z" fill="#333333"/>
        <path d="M8.27301 1.71967C8.03301 1.47967 7.69967 1.33301 7.33301 1.33301H2.66634C1.93301 1.33301 1.33301 1.93301 1.33301 2.66634V7.33301C1.33301 7.69967 1.47967 8.03301 1.72634 8.27967L7.72634 14.2797C7.96634 14.5197 8.29967 14.6663 8.66634 14.6663C9.03301 14.6663 9.36634 14.5197 9.60634 14.273L14.273 9.60634C14.5197 9.36634 14.6663 9.03301 14.6663 8.66634C14.6663 8.29967 14.513 7.95967 14.273 7.71967L8.27301 1.71967ZM8.66634 13.3397L2.66634 7.33301V2.66634H7.33301V2.65967L13.333 8.65967L8.66634 13.3397Z" fill="#333333"/>
        <path d="M4.33301 5.33301C4.88529 5.33301 5.33301 4.88529 5.33301 4.33301C5.33301 3.78072 4.88529 3.33301 4.33301 3.33301C3.78072 3.33301 3.33301 3.78072 3.33301 4.33301C3.33301 4.88529 3.78072 5.33301 4.33301 5.33301Z" fill="#333333"/>
    </g>
    <defs>
        <clipPath id="clip0_3005_4184">
            <rect width="16" height="16" fill="white"/>
        </clipPath>
    </defs>
</svg>
