<svg width="25" height="25" viewBox="0 0 25 25" fill="none"
    xmlns="http://www.w3.org/2000/svg">
    <path d="M18.5 6.5H16.5C16.5 4.29 14.71 2.5 12.5 2.5C10.29 2.5 8.5 4.29 8.5 6.5H6.5C5.4 6.5 4.5 7.4 4.5 8.5V20.5C4.5 21.6 5.4 22.5 6.5 22.5H18.5C19.6 22.5 20.5 21.6 20.5 20.5V8.5C20.5 7.4 19.6 6.5 18.5 6.5ZM12.5 4.5C13.6 4.5 14.5 5.4 14.5 6.5H10.5C10.5 5.4 11.4 4.5 12.5 4.5ZM18.5 20.5H6.5V8.5H8.5V10.5C8.5 11.05 8.95 11.5 9.5 11.5C10.05 11.5 10.5 11.05 10.5 10.5V8.5H14.5V10.5C14.5 11.05 14.95 11.5 15.5 11.5C16.05 11.5 16.5 11.05 16.5 10.5V8.5H18.5V20.5Z" fill="#A1A1A1"/>
</svg>
